<svg width="20" height="20" viewBox="0 0 20 20" fill="none" xmlns="http://www.w3.org/2000/svg">
<path d="M15.5134 16.6666H15.9219C16.8801 16.6666 17.6422 16.23 18.3265 15.6196C20.065 14.0688 15.9784 12.5 14.5833 12.5M12.9166 4.22393C13.1058 4.1864 13.3023 4.16663 13.5039 4.16663C15.0205 4.16663 16.25 5.28591 16.25 6.66663C16.25 8.04734 15.0205 9.16663 13.5039 9.16663C13.3023 9.16663 13.1058 9.14685 12.9166 9.10932" stroke="#6B6B6B" stroke-width="1.25" stroke-linecap="round"/>
<path d="M3.73443 13.4259C2.75195 13.9525 0.175948 15.0275 1.7449 16.3728C2.51133 17.03 3.36492 17.5 4.4381 17.5H10.5619C11.6351 17.5 12.4887 17.03 13.2551 16.3728C14.8241 15.0275 12.2481 13.9525 11.2656 13.4259C8.96167 12.1913 6.03832 12.1913 3.73443 13.4259Z" stroke="#6B6B6B" stroke-width="1.25"/>
<path d="M10.8333 6.24996C10.8333 8.09091 9.34095 9.58329 7.5 9.58329C5.65905 9.58329 4.16667 8.09091 4.16667 6.24996C4.16667 4.40901 5.65905 2.91663 7.5 2.91663C9.34095 2.91663 10.8333 4.40901 10.8333 6.24996Z" stroke="#6B6B6B" stroke-width="1.25"/>
</svg>
