<svg width="20" height="20" viewBox="0 0 20 20" fill="none" xmlns="http://www.w3.org/2000/svg">
<path d="M16.6665 9.16663V8.33329C16.6665 5.1906 16.6665 3.61925 15.6328 2.64294C14.599 1.66663 12.9352 1.66663 9.60768 1.66663L8.72533 1.66663C5.39777 1.66663 3.73399 1.66663 2.70025 2.64294C1.6665 3.61925 1.6665 5.1906 1.6665 8.33329L1.6665 11.6666C1.6665 14.8093 1.6665 16.3807 2.70024 17.357C3.73399 18.3333 5.39777 18.3333 8.72533 18.3333H9.1665" stroke="#6B6B6B" stroke-width="1.25" stroke-linecap="round"/>
<path d="M5.83301 5.83325H12.4997" stroke="#6B6B6B" stroke-width="1.25" stroke-linecap="round"/>
<path d="M5.83301 10H12.4997" stroke="#6B6B6B" stroke-width="1.25" stroke-linecap="round"/>
<path d="M12.7896 18.2131L12.6589 17.6019H12.6589L12.7896 18.2131ZM11.7867 17.2102L12.3979 17.3409L11.7867 17.2102ZM12.5171 15.0931L12.0751 14.6511L12.5171 15.0931ZM14.9067 17.4827L14.4648 17.0408L14.9067 17.4827ZM18.1634 12.8977L18.7046 12.5852L18.1634 12.8977ZM17.6633 14.7262L18.1052 15.1681L17.6633 14.7262ZM18.1634 14.165L18.7046 14.4775L18.1634 14.165ZM17.1021 11.8364L17.4146 11.2951V11.2951L17.1021 11.8364ZM15.2736 12.3365L15.7155 12.7785L15.2736 12.3365ZM15.8348 11.8364L15.5223 11.2951V11.2951L15.8348 11.8364ZM17.6633 14.7262L17.2213 14.2843L14.4648 17.0408L14.9067 17.4827L15.3487 17.9247L18.1052 15.1681L17.6633 14.7262ZM12.5171 15.0931L12.959 15.535L15.7155 12.7785L15.2736 12.3365L14.8317 11.8946L12.0751 14.6511L12.5171 15.0931ZM12.7896 18.2131L12.6589 17.6019C12.5127 17.6331 12.3959 17.6581 12.2955 17.6767C12.1942 17.6956 12.1278 17.7045 12.0828 17.7073C12.0366 17.7103 12.0398 17.7048 12.0686 17.7122C12.1078 17.7223 12.1612 17.7476 12.2067 17.7931L11.7647 18.235L11.3228 18.677C11.5926 18.9468 11.9297 18.9696 12.1621 18.9548C12.3834 18.9407 12.6531 18.8814 12.9203 18.8242L12.7896 18.2131ZM11.7867 17.2102L11.1756 17.0795C11.1184 17.3467 11.0591 17.6164 11.045 17.8377C11.0302 18.0701 11.053 18.4072 11.3228 18.677L11.7647 18.235L12.2067 17.7931C12.2522 17.8386 12.2775 17.892 12.2876 17.9312C12.295 17.96 12.2895 17.9632 12.2925 17.917C12.2953 17.872 12.3042 17.8056 12.3231 17.7043C12.3417 17.6039 12.3667 17.4871 12.3979 17.3409L11.7867 17.2102ZM17.6633 12.3365L17.2213 12.7785C17.5276 13.0847 17.5902 13.1549 17.6221 13.2102L18.1634 12.8977L18.7046 12.5852C18.5697 12.3515 18.3546 12.1439 18.1052 11.8946L17.6633 12.3365ZM17.6633 14.7262L18.1052 15.1681C18.3546 14.9188 18.5697 14.7112 18.7046 14.4775L18.1634 14.165L17.6221 13.8525C17.5902 13.9078 17.5276 13.978 17.2213 14.2843L17.6633 14.7262ZM18.1634 12.8977L17.6221 13.2102C17.7369 13.4089 17.7369 13.6538 17.6221 13.8525L18.1634 14.165L18.7046 14.4775C19.0427 13.892 19.0427 13.1707 18.7046 12.5852L18.1634 12.8977ZM17.6633 12.3365L18.1052 11.8946C17.8559 11.6452 17.6483 11.4301 17.4146 11.2951L17.1021 11.8364L16.7896 12.3777C16.8449 12.4096 16.9151 12.4722 17.2213 12.7785L17.6633 12.3365ZM15.2736 12.3365L15.7155 12.7785C16.0218 12.4722 16.092 12.4096 16.1473 12.3777L15.8348 11.8364L15.5223 11.2951C15.2886 11.4301 15.081 11.6452 14.8317 11.8946L15.2736 12.3365ZM17.1021 11.8364L17.4146 11.2951C16.8291 10.9571 16.1078 10.9571 15.5223 11.2951L15.8348 11.8364L16.1473 12.3777C16.346 12.2629 16.5909 12.2629 16.7896 12.3777L17.1021 11.8364ZM14.9067 17.4827L14.4648 17.0408C14.3019 17.2037 14.0792 17.3091 13.7628 17.3899C13.6043 17.4303 13.4352 17.4616 13.2468 17.4942C13.0657 17.5255 12.8584 17.5592 12.6589 17.6019L12.7896 18.2131L12.9203 18.8242C13.0885 18.7883 13.2608 18.7603 13.4596 18.7259C13.651 18.6929 13.862 18.6546 14.072 18.601C14.4926 18.4936 14.9609 18.3124 15.3487 17.9247L14.9067 17.4827ZM11.7867 17.2102L12.3979 17.3409C12.4406 17.1414 12.4743 16.9341 12.5056 16.753C12.5382 16.5646 12.5695 16.3955 12.6099 16.237C12.6907 15.9206 12.7961 15.6979 12.959 15.535L12.5171 15.0931L12.0751 14.6511C11.6874 15.0389 11.5062 15.5071 11.3988 15.9278C11.3451 16.1378 11.3069 16.3488 11.2739 16.5402C11.2395 16.739 11.2115 16.9113 11.1756 17.0795L11.7867 17.2102Z" fill="#6B6B6B"/>
</svg>
