<svg width="20" height="20" viewBox="0 0 20 20" fill="none" xmlns="http://www.w3.org/2000/svg">
<path d="M6.25253 3.33337C6.23684 3.0238 6.29321 2.78468 6.44649 2.58337C6.82723 2.08337 7.60279 2.08337 9.15393 2.08337H10.8461C12.3972 2.08337 13.1728 2.08337 13.5535 2.58337C13.7068 2.78468 13.7632 3.0238 13.7475 3.33337" stroke="#2A4467" stroke-width="1.25" stroke-linecap="round" stroke-linejoin="round"/>
<path d="M4.1665 6.66663C4.19804 6.45027 4.27049 6.26323 4.39124 6.09522C4.87895 5.41663 5.88992 5.41663 7.91187 5.41663H12.0878C14.1098 5.41663 15.1207 5.41663 15.6084 6.09522C15.7292 6.26323 15.8016 6.45027 15.8332 6.66663" stroke="#2A4467" stroke-width="1.25" stroke-linecap="round" stroke-linejoin="round"/>
<path d="M3.18128 13.094L3.78034 15.0133C4.52661 17.4043 5.16441 17.9167 7.67522 17.9167H12.3248C14.8356 17.9167 15.4734 17.4043 16.2197 15.0133L16.8187 13.094C17.4384 11.1086 17.7483 10.1158 17.2584 9.43291C16.7686 8.75 15.7467 8.75 13.7028 8.75H6.29718C4.25334 8.75 3.23141 8.75 2.74157 9.43291C2.25172 10.1158 2.56157 11.1086 3.18128 13.094Z" stroke="#2A4467" stroke-width="1.25" stroke-linecap="round" stroke-linejoin="round"/>
</svg>
