<svg width="20" height="20" viewBox="0 0 20 20" fill="none" xmlns="http://www.w3.org/2000/svg">
<path fill-rule="evenodd" clip-rule="evenodd" d="M11.875 5.41541C11.875 3.68952 13.2741 2.29041 15 2.29041C16.7259 2.29041 18.125 3.68952 18.125 5.41541C18.125 7.14129 16.7259 8.54041 15 8.54041C13.2741 8.54041 11.875 7.14129 11.875 5.41541Z" fill="#6B6B6B"/>
<path fill-rule="evenodd" clip-rule="evenodd" d="M1.875 9.99878C1.875 8.27289 3.27411 6.87378 5 6.87378C6.72589 6.87378 8.125 8.27289 8.125 9.99878C8.125 11.7247 6.72589 13.1238 5 13.1238C3.27411 13.1238 1.875 11.7247 1.875 9.99878Z" fill="#6B6B6B"/>
<path fill-rule="evenodd" clip-rule="evenodd" d="M11.875 14.582C11.875 12.8561 13.2741 11.457 15 11.457C16.7259 11.457 18.125 12.8561 18.125 14.582C18.125 16.3079 16.7259 17.707 15 17.707C13.2741 17.707 11.875 16.3079 11.875 14.582Z" fill="#6B6B6B"/>
<path fill-rule="evenodd" clip-rule="evenodd" d="M13.0388 7.21522L7.62216 9.71477L6.92383 8.20146L12.3405 5.7019L13.0388 7.21522ZM7.62216 10.2852L13.0388 12.7848L12.3405 14.2981L6.92383 11.7986L7.62216 10.2852Z" fill="#6B6B6B"/>
</svg>
