<svg width="20" height="20" viewBox="0 0 20 20" fill="none" xmlns="http://www.w3.org/2000/svg">
<path d="M15.5135 16.6666H15.922C16.8802 16.6666 17.6423 16.23 18.3267 15.6196C20.0651 14.0688 15.9785 12.5 14.5834 12.5M12.9167 4.22393C13.106 4.1864 13.3025 4.16663 13.504 4.16663C15.0206 4.16663 16.2501 5.28591 16.2501 6.66663C16.2501 8.04734 15.0206 9.16663 13.504 9.16663C13.3025 9.16663 13.106 9.14685 12.9167 9.10932" stroke="#6B6B6B" stroke-width="1.25" stroke-linecap="round"/>
<path d="M3.73443 13.4259C2.75195 13.9525 0.175948 15.0275 1.7449 16.3728C2.51133 17.03 3.36492 17.5 4.4381 17.5H10.5619C11.6351 17.5 12.4887 17.03 13.2551 16.3728C14.8241 15.0275 12.2481 13.9525 11.2656 13.4259C8.96167 12.1913 6.03832 12.1913 3.73443 13.4259Z" stroke="#6B6B6B" stroke-width="1.25"/>
<path d="M10.8333 6.24996C10.8333 8.09091 9.34095 9.58329 7.5 9.58329C5.65905 9.58329 4.16667 8.09091 4.16667 6.24996C4.16667 4.40901 5.65905 2.91663 7.5 2.91663C9.34095 2.91663 10.8333 4.40901 10.8333 6.24996Z" stroke="#6B6B6B" stroke-width="1.25"/>
</svg>
