<svg width="64" height="64" viewBox="0 0 64 64" fill="none" xmlns="http://www.w3.org/2000/svg">
<path d="M50.6415 50.6666H50.6668M50.6415 50.6666C48.981 52.3132 45.9717 51.9031 43.8613 51.9031C41.2709 51.9031 40.0234 52.4098 38.1746 54.2587C36.6004 55.8329 34.4901 58.6665 32.0002 58.6666C29.5103 58.6665 27.4 55.8329 25.8257 54.2587C23.9769 52.4099 22.7295 51.9031 20.139 51.9031C18.0286 51.9031 15.0193 52.3132 13.3588 50.6666C11.685 49.0068 12.0969 45.985 12.0969 43.861C12.0969 41.177 11.5099 39.9428 9.59851 38.0315C6.75519 35.1882 5.33354 33.7664 5.3335 31.9999C5.33352 30.2333 6.75516 28.8116 9.59844 25.9684C11.3047 24.2621 12.0969 22.5713 12.0969 20.1387C12.0969 18.0283 11.6868 15.019 13.3335 13.3584C14.9933 11.6847 18.0151 12.0966 20.139 12.0966C22.5716 12.0966 24.2623 11.3045 25.9686 9.59824C28.8119 6.75491 30.2335 5.33325 32.0002 5.33325C33.7668 5.33325 35.1884 6.75491 38.0318 9.59823C39.7376 11.3041 41.4281 12.0966 43.8613 12.0966C45.9717 12.0966 48.9811 11.6865 50.6416 13.3333C52.3153 14.9931 51.9034 18.0148 51.9034 20.1387C51.9034 22.8228 52.4905 24.0569 54.4019 25.9684C57.2452 28.8116 58.6668 30.2333 58.6668 31.9999C58.6668 33.7664 57.2451 35.1882 54.4018 38.0315C52.4904 39.9428 51.9034 41.1771 51.9034 43.861C51.9034 45.985 52.3153 49.0068 50.6415 50.6666Z" stroke="#43A047" stroke-width="4"/>
<path d="M24 34.3809C24 34.3809 27.2 36.119 28.8 38.6666C28.8 38.6666 33.6 28.6666 40 25.3333" stroke="#43A047" stroke-width="4" stroke-linecap="round" stroke-linejoin="round"/>
</svg>
