<svg width="20" height="20" viewBox="0 0 20 20" fill="none" xmlns="http://www.w3.org/2000/svg">
<path d="M16.6667 9.16663V8.33329C16.6667 5.1906 16.6667 3.61925 15.633 2.64294C14.5993 1.66663 12.9355 1.66663 9.60793 1.66663L8.72557 1.66663C5.39801 1.66663 3.73423 1.66663 2.70049 2.64294C1.66675 3.61925 1.66675 5.1906 1.66675 8.33329L1.66675 11.6666C1.66675 14.8093 1.66675 16.3807 2.70049 17.357C3.73423 18.3333 5.39801 18.3333 8.72557 18.3333H9.16675" stroke="#6B6B6B" stroke-width="1.25" stroke-linecap="round"/>
<path d="M5.8335 5.83325H12.5002" stroke="#6B6B6B" stroke-width="1.25" stroke-linecap="round"/>
<path d="M5.8335 10H12.5002" stroke="#6B6B6B" stroke-width="1.25" stroke-linecap="round"/>
<path d="M12.7898 18.2131L12.6592 17.6019H12.6592L12.7898 18.2131ZM11.787 17.2102L12.3982 17.3409L11.787 17.2102ZM12.5173 15.0931L12.0754 14.6511L12.5173 15.0931ZM14.907 17.4827L14.465 17.0408L14.907 17.4827ZM18.1636 12.8977L18.7049 12.5852L18.1636 12.8977ZM17.6635 14.7262L18.1055 15.1681L17.6635 14.7262ZM18.1636 14.165L18.7049 14.4775L18.1636 14.165ZM17.1023 11.8364L17.4148 11.2951V11.2951L17.1023 11.8364ZM15.2738 12.3365L15.7158 12.7785L15.2738 12.3365ZM15.835 11.8364L15.5225 11.2951V11.2951L15.835 11.8364ZM17.6635 14.7262L17.2216 14.2843L14.465 17.0408L14.907 17.4827L15.3489 17.9247L18.1055 15.1681L17.6635 14.7262ZM12.5173 15.0931L12.9593 15.535L15.7158 12.7785L15.2738 12.3365L14.8319 11.8946L12.0754 14.6511L12.5173 15.0931ZM12.7898 18.2131L12.6592 17.6019C12.513 17.6331 12.3961 17.6581 12.2958 17.6767C12.1945 17.6956 12.1281 17.7045 12.0831 17.7073C12.0368 17.7103 12.04 17.7048 12.0689 17.7122C12.1081 17.7223 12.1614 17.7476 12.2069 17.7931L11.765 18.235L11.3231 18.677C11.5929 18.9468 11.9299 18.9696 12.1624 18.9548C12.3836 18.9407 12.6533 18.8814 12.9205 18.8242L12.7898 18.2131ZM11.787 17.2102L11.1758 17.0795C11.1187 17.3467 11.0593 17.6164 11.0452 17.8377C11.0305 18.0701 11.0532 18.4072 11.3231 18.677L11.765 18.235L12.2069 17.7931C12.2524 17.8386 12.2777 17.892 12.2878 17.9312C12.2953 17.96 12.2898 17.9632 12.2927 17.917C12.2956 17.872 12.3045 17.8056 12.3233 17.7043C12.342 17.6039 12.3669 17.4871 12.3982 17.3409L11.787 17.2102ZM17.6635 12.3365L17.2216 12.7785C17.5278 13.0847 17.5904 13.1549 17.6224 13.2102L18.1636 12.8977L18.7049 12.5852C18.57 12.3515 18.3548 12.1439 18.1055 11.8946L17.6635 12.3365ZM17.6635 14.7262L18.1055 15.1681C18.3548 14.9188 18.57 14.7112 18.7049 14.4775L18.1636 14.165L17.6224 13.8525C17.5904 13.9078 17.5278 13.978 17.2216 14.2843L17.6635 14.7262ZM18.1636 12.8977L17.6224 13.2102C17.7371 13.4089 17.7371 13.6538 17.6224 13.8525L18.1636 14.165L18.7049 14.4775C19.0429 13.892 19.0429 13.1707 18.7049 12.5852L18.1636 12.8977ZM17.6635 12.3365L18.1055 11.8946C17.8561 11.6452 17.6486 11.4301 17.4148 11.2951L17.1023 11.8364L16.7898 12.3777C16.8451 12.4096 16.9153 12.4722 17.2216 12.7785L17.6635 12.3365ZM15.2738 12.3365L15.7158 12.7785C16.022 12.4722 16.0922 12.4096 16.1475 12.3777L15.835 11.8364L15.5225 11.2951C15.2888 11.4301 15.0812 11.6452 14.8319 11.8946L15.2738 12.3365ZM17.1023 11.8364L17.4148 11.2951C16.8294 10.9571 16.108 10.9571 15.5225 11.2951L15.835 11.8364L16.1475 12.3777C16.3463 12.2629 16.5911 12.2629 16.7898 12.3777L17.1023 11.8364ZM14.907 17.4827L14.465 17.0408C14.3021 17.2037 14.0794 17.3091 13.763 17.3899C13.6045 17.4303 13.4354 17.4616 13.247 17.4942C13.0659 17.5255 12.8586 17.5592 12.6592 17.6019L12.7898 18.2131L12.9205 18.8242C13.0887 18.7883 13.261 18.7603 13.4598 18.7259C13.6512 18.6929 13.8622 18.6546 14.0722 18.601C14.4929 18.4936 14.9612 18.3124 15.3489 17.9247L14.907 17.4827ZM11.787 17.2102L12.3982 17.3409C12.4408 17.1414 12.4746 16.9341 12.5059 16.753C12.5384 16.5646 12.5697 16.3955 12.6102 16.237C12.6909 15.9206 12.7963 15.6979 12.9593 15.535L12.5173 15.0931L12.0754 14.6511C11.6876 15.0389 11.5064 15.5071 11.399 15.9278C11.3454 16.1378 11.3072 16.3488 11.2741 16.5402C11.2398 16.739 11.2118 16.9113 11.1758 17.0795L11.787 17.2102Z" fill="#6B6B6B"/>
</svg>
