<svg width="29" height="29" viewBox="0 0 29 29" fill="none" xmlns="http://www.w3.org/2000/svg">
<path d="M9.00365 4.8C8.98105 4.35421 9.06222 4.00988 9.28295 3.72C9.83121 3 10.948 3 13.1817 3H15.6183C17.852 3 18.9688 3 19.517 3.72C19.7378 4.00988 19.819 4.35421 19.7964 4.8" stroke="#286EE0" stroke-width="1.8" stroke-linecap="round" stroke-linejoin="round"/>
<path d="M6 9.59993C6.04541 9.28838 6.14973 9.01904 6.32362 8.7771C7.02592 7.79993 8.48172 7.79993 11.3933 7.79993H17.4067C20.3183 7.79993 21.7741 7.79993 22.4764 8.7771C22.6503 9.01904 22.7546 9.28838 22.8 9.59993" stroke="#286EE0" stroke-width="1.8" stroke-linecap="round" stroke-linejoin="round"/>
<path d="M4.58114 18.8554L5.44379 21.6192C6.51842 25.0622 7.43685 25.8 11.0524 25.8H17.7478C21.3634 25.8 22.2818 25.0622 23.3564 21.6192L24.2191 18.8554C25.1114 15.9963 25.5576 14.5668 24.8522 13.5834C24.1469 12.6 22.6753 12.6 19.7322 12.6H9.06804C6.1249 12.6 4.65333 12.6 3.94796 13.5834C3.24258 14.5668 3.68877 15.9963 4.58114 18.8554Z" stroke="#286EE0" stroke-width="1.8" stroke-linecap="round" stroke-linejoin="round"/>
</svg>
