<svg width="29" height="29" viewBox="0 0 29 29" fill="none" xmlns="http://www.w3.org/2000/svg">
<path d="M15.0353 2.40002C19.827 2.40002 22.2228 2.40002 23.7114 3.80591C25.2 5.2118 25.2 7.47454 25.2 12V16.8C25.2 21.3255 25.2 23.5883 23.7114 24.9941C22.2228 26.4 19.827 26.4 15.0353 26.4H13.7647C8.97299 26.4 6.57715 26.4 5.08856 24.9941C3.59998 23.5882 3.59998 21.3255 3.59998 16.8L3.59998 12C3.59998 7.47454 3.59998 5.2118 5.08856 3.80591C6.57715 2.40002 8.97299 2.40002 13.7647 2.40002L15.0353 2.40002Z" stroke="#E53935" stroke-width="1.8" stroke-linecap="round"/>
<path d="M9.59998 8.40002H19.2" stroke="#E53935" stroke-width="1.8" stroke-linecap="round"/>
<path d="M9.59998 14.4H19.2" stroke="#E53935" stroke-width="1.8" stroke-linecap="round"/>
<path d="M9.59998 20.4H14.4" stroke="#E53935" stroke-width="1.8" stroke-linecap="round"/>
</svg>
