<svg width="20" height="20" viewBox="0 0 20 20" fill="none" xmlns="http://www.w3.org/2000/svg">
<path d="M10.4412 1.66666C13.7687 1.66666 15.4325 1.66666 16.4663 2.64297C17.5 3.61928 17.5 5.19063 17.5 8.33332V11.6667C17.5 14.8094 17.5 16.3807 16.4663 17.357C15.4325 18.3333 13.7687 18.3333 10.4412 18.3333H9.55882C6.23126 18.3333 4.56748 18.3333 3.53374 17.357C2.5 16.3807 2.5 14.8094 2.5 11.6667L2.5 8.33332C2.5 5.19063 2.5 3.61928 3.53374 2.64297C4.56748 1.66666 6.23126 1.66666 9.55882 1.66666L10.4412 1.66666Z" stroke="#2A4467" stroke-width="1.25" stroke-linecap="round"/>
<path d="M6.66663 5.83331H13.3333" stroke="#2A4467" stroke-width="1.25" stroke-linecap="round"/>
<path d="M6.66663 10H13.3333" stroke="#2A4467" stroke-width="1.25" stroke-linecap="round"/>
<path d="M6.66663 14.1667H9.99996" stroke="#2A4467" stroke-width="1.25" stroke-linecap="round"/>
</svg>
