<svg width="56" height="56" viewBox="0 0 56 56" fill="none" xmlns="http://www.w3.org/2000/svg">
<path d="M46.6666 46.6667C46.4974 46.7936 46.3245 46.9161 46.1483 47.0338C43.2057 49 39.1093 49 30.9166 49H28C17.0005 49 11.5008 49 8.08371 45.5829C4.66663 42.1658 4.66663 36.6661 4.66663 25.6667V18.5367C4.66663 14.2982 4.66663 12.179 5.55403 10.5888C6.09924 9.61186 6.86934 8.78213 7.79742 8.16656" stroke="#2A4467" stroke-opacity="0.5" stroke-width="3.5" stroke-linecap="round"/>
<path d="M25.6667 16.3333H39.0834C43.999 16.3333 46.4568 16.3333 48.2224 17.513C48.9867 18.0237 49.643 18.68 50.1537 19.4443C51.3334 21.2099 51.3334 23.6677 51.3334 28.5833C51.3334 33.5781 51.3334 37.0503 50.8878 39.6667M28 16.3333L26.522 13.3773C25.2975 10.9283 24.1786 8.46326 21.465 7.44568C20.4826 7.0773 19.3847 7.0134 17.5 7.00232H16.3334" stroke="#2A4467" stroke-opacity="0.5" stroke-width="3.5" stroke-linecap="round"/>
<path d="M4.66663 4.66669L51.3333 51.3334" stroke="#2A4467" stroke-opacity="0.5" stroke-width="3.5" stroke-linecap="round"/>
</svg>
