<svg width="29" height="29" viewBox="0 0 29 29" fill="none" xmlns="http://www.w3.org/2000/svg">
<path d="M15.0353 2.39999C19.827 2.39999 22.2228 2.39999 23.7114 3.80588C25.2 5.21177 25.2 7.47451 25.2 12V16.8C25.2 21.3255 25.2 23.5882 23.7114 24.9941C22.2228 26.4 19.827 26.4 15.0353 26.4H13.7647C8.97299 26.4 6.57715 26.4 5.08856 24.9941C3.59998 23.5882 3.59998 21.3255 3.59998 16.8L3.59998 12C3.59998 7.47451 3.59998 5.21177 5.08856 3.80588C6.57715 2.39999 8.97299 2.39999 13.7647 2.39999L15.0353 2.39999Z" stroke="#0F0F0F" stroke-width="1.8" stroke-linecap="round"/>
<path d="M9.59998 8.39999H19.2" stroke="#0F0F0F" stroke-width="1.8" stroke-linecap="round"/>
<path d="M9.59998 14.4H19.2" stroke="#0F0F0F" stroke-width="1.8" stroke-linecap="round"/>
<path d="M9.59998 20.4H14.4" stroke="#0F0F0F" stroke-width="1.8" stroke-linecap="round"/>
</svg>
