<svg width="20" height="20" viewBox="0 0 20 20" fill="none" xmlns="http://www.w3.org/2000/svg">
<path fill-rule="evenodd" clip-rule="evenodd" d="M11.875 5.41537C11.875 3.68948 13.2741 2.29037 15 2.29037C16.7259 2.29037 18.125 3.68948 18.125 5.41537C18.125 7.14126 16.7259 8.54037 15 8.54037C13.2741 8.54037 11.875 7.14126 11.875 5.41537Z" fill="#6B6B6B"/>
<path fill-rule="evenodd" clip-rule="evenodd" d="M1.875 9.99872C1.875 8.27283 3.27411 6.87372 5 6.87372C6.72589 6.87372 8.125 8.27283 8.125 9.99872C8.125 11.7246 6.72589 13.1237 5 13.1237C3.27411 13.1237 1.875 11.7246 1.875 9.99872Z" fill="#6B6B6B"/>
<path fill-rule="evenodd" clip-rule="evenodd" d="M11.875 14.582C11.875 12.8561 13.2741 11.457 15 11.457C16.7259 11.457 18.125 12.8561 18.125 14.582C18.125 16.3079 16.7259 17.707 15 17.707C13.2741 17.707 11.875 16.3079 11.875 14.582Z" fill="#6B6B6B"/>
<path fill-rule="evenodd" clip-rule="evenodd" d="M13.0388 7.21516L7.62216 9.71471L6.92383 8.2014L12.3405 5.70184L13.0388 7.21516ZM7.62216 10.2852L13.0388 12.7847L12.3405 14.298L6.92383 11.7985L7.62216 10.2852Z" fill="#6B6B6B"/>
</svg>
