<svg width="29" height="29" viewBox="0 0 29 29" fill="none" xmlns="http://www.w3.org/2000/svg">
<path d="M15.0354 2.39999C19.8271 2.39999 22.2229 2.39999 23.7115 3.80588C25.2001 5.21177 25.2001 7.47451 25.2001 12V16.8C25.2001 21.3255 25.2001 23.5882 23.7115 24.9941C22.2229 26.4 19.8271 26.4 15.0354 26.4H13.7648C8.97311 26.4 6.57727 26.4 5.08868 24.9941C3.6001 23.5882 3.6001 21.3255 3.6001 16.8L3.6001 12C3.6001 7.47451 3.6001 5.21177 5.08869 3.80588C6.57727 2.39999 8.97312 2.39999 13.7648 2.39999L15.0354 2.39999Z" stroke="#43A047" stroke-width="1.8" stroke-linecap="round"/>
<path d="M9.6001 8.39999H19.2001" stroke="#43A047" stroke-width="1.8" stroke-linecap="round"/>
<path d="M9.6001 14.4H19.2001" stroke="#43A047" stroke-width="1.8" stroke-linecap="round"/>
<path d="M9.6001 20.4H14.4001" stroke="#43A047" stroke-width="1.8" stroke-linecap="round"/>
</svg>
