<svg width="20" height="20" viewBox="0 0 20 20" fill="none" xmlns="http://www.w3.org/2000/svg">
<g clip-path="url(#clip0_4389_78567)">
<path d="M12.5001 14.1667C11.8339 14.6854 10.9587 15.0001 10.0001 15.0001C9.04159 15.0001 8.16639 14.6854 7.50012 14.1667" stroke="#6B6B6B" stroke-width="1.5" stroke-linecap="round"/>
<path d="M1.95957 11.0113C1.66539 9.09695 1.5183 8.13978 1.88022 7.29123C2.24214 6.44268 3.0451 5.86211 4.65103 4.70097L5.8509 3.83341C7.84866 2.38897 8.84753 1.66675 10.0001 1.66675C11.1526 1.66675 12.1515 2.38897 14.1493 3.83341L15.3491 4.70097C16.9551 5.86211 17.758 6.44268 18.1199 7.29123C18.4819 8.13978 18.3348 9.09695 18.0406 11.0113L17.7897 12.6437C17.3727 15.3575 17.1642 16.7144 16.1909 17.5239C15.2177 18.3334 13.7948 18.3334 10.9491 18.3334H9.05107C6.20536 18.3334 4.7825 18.3334 3.80925 17.5239C2.83599 16.7144 2.62747 15.3575 2.21044 12.6437L1.95957 11.0113Z" stroke="#6B6B6B" stroke-width="1.5" stroke-linejoin="round"/>
</g>
<defs>
<clipPath id="clip0_4389_78567">
<rect width="20" height="20" fill="white"/>
</clipPath>
</defs>
</svg>
