<svg width="29" height="29" viewBox="0 0 29 29" fill="none" xmlns="http://www.w3.org/2000/svg">
<path d="M15.0353 2.3999C19.827 2.3999 22.2228 2.3999 23.7114 3.80579C25.2 5.21168 25.2 7.47442 25.2 11.9999V16.7999C25.2 21.3254 25.2 23.5881 23.7114 24.994C22.2228 26.3999 19.827 26.3999 15.0353 26.3999H13.7647C8.97299 26.3999 6.57715 26.3999 5.08856 24.994C3.59998 23.5881 3.59998 21.3254 3.59998 16.7999L3.59998 11.9999C3.59998 7.47442 3.59998 5.21168 5.08856 3.80579C6.57715 2.3999 8.97299 2.3999 13.7647 2.3999L15.0353 2.3999Z" stroke="#E53935" stroke-width="1.8" stroke-linecap="round"/>
<path d="M9.59998 8.3999H19.2" stroke="#E53935" stroke-width="1.8" stroke-linecap="round"/>
<path d="M9.59998 14.3999H19.2" stroke="#E53935" stroke-width="1.8" stroke-linecap="round"/>
<path d="M9.59998 20.3999H14.4" stroke="#E53935" stroke-width="1.8" stroke-linecap="round"/>
</svg>
