<svg width="20" height="20" viewBox="0 0 20 20" fill="none" xmlns="http://www.w3.org/2000/svg">
<path d="M16.667 9.16663V8.33329C16.667 5.1906 16.667 3.61925 15.6333 2.64294C14.5995 1.66663 12.9357 1.66663 9.60817 1.66663L8.72582 1.66663C5.39826 1.66663 3.73447 1.66663 2.70073 2.64294C1.66699 3.61925 1.66699 5.1906 1.66699 8.33329L1.66699 11.6666C1.66699 14.8093 1.66699 16.3807 2.70073 17.357C3.73447 18.3333 5.39825 18.3333 8.72582 18.3333H9.16699" stroke="#6B6B6B" stroke-width="1.25" stroke-linecap="round"/>
<path d="M5.83398 5.83325H12.5007" stroke="#6B6B6B" stroke-width="1.25" stroke-linecap="round"/>
<path d="M5.83398 10H12.5007" stroke="#6B6B6B" stroke-width="1.25" stroke-linecap="round"/>
<path d="M12.7901 18.2129L12.6594 17.6018H12.6594L12.7901 18.2129ZM11.7872 17.2101L12.3984 17.3408L11.7872 17.2101ZM12.5176 15.0929L12.0756 14.651L12.5176 15.0929ZM14.9072 17.4826L14.4653 17.0407L14.9072 17.4826ZM18.1639 12.8976L18.7051 12.5851L18.1639 12.8976ZM17.6638 14.7261L18.1057 15.168L17.6638 14.7261ZM18.1639 14.1649L18.7051 14.4774L18.1639 14.1649ZM17.1026 11.8363L17.4151 11.295V11.295L17.1026 11.8363ZM15.2741 12.3364L15.716 12.7783L15.2741 12.3364ZM15.8353 11.8363L15.5228 11.295V11.295L15.8353 11.8363ZM17.6638 14.7261L17.2218 14.2841L14.4653 17.0407L14.9072 17.4826L15.3492 17.9246L18.1057 15.168L17.6638 14.7261ZM12.5176 15.0929L12.9595 15.5349L15.716 12.7783L15.2741 12.3364L14.8321 11.8945L12.0756 14.651L12.5176 15.0929ZM12.7901 18.2129L12.6594 17.6018C12.5132 17.633 12.3964 17.6579 12.296 17.6766C12.1947 17.6954 12.1283 17.7043 12.0833 17.7072C12.0371 17.7101 12.0403 17.7047 12.0691 17.7121C12.1083 17.7222 12.1617 17.7475 12.2072 17.793L11.7652 18.2349L11.3233 18.6769C11.5931 18.9467 11.9302 18.9695 12.1626 18.9547C12.3839 18.9406 12.6536 18.8813 12.9208 18.8241L12.7901 18.2129ZM11.7872 17.2101L11.176 17.0794C11.1189 17.3466 11.0596 17.6163 11.0455 17.8375C11.0307 18.07 11.0535 18.407 11.3233 18.6769L11.7652 18.2349L12.2072 17.793C12.2527 17.8385 12.2779 17.8918 12.2881 17.9311C12.2955 17.9599 12.29 17.9631 12.293 17.9169C12.2958 17.8718 12.3047 17.8055 12.3236 17.7042C12.3422 17.6038 12.3671 17.487 12.3984 17.3408L11.7872 17.2101ZM17.6638 12.3364L17.2218 12.7783C17.5281 13.0846 17.5907 13.1548 17.6226 13.2101L18.1639 12.8976L18.7051 12.5851C18.5702 12.3514 18.355 12.1438 18.1057 11.8945L17.6638 12.3364ZM17.6638 14.7261L18.1057 15.168C18.355 14.9187 18.5702 14.7111 18.7051 14.4774L18.1639 14.1649L17.6226 13.8524C17.5907 13.9077 17.5281 13.9779 17.2218 14.2841L17.6638 14.7261ZM18.1639 12.8976L17.6226 13.2101C17.7373 13.4088 17.7373 13.6537 17.6226 13.8524L18.1639 14.1649L18.7051 14.4774C19.0432 13.8919 19.0432 13.1706 18.7051 12.5851L18.1639 12.8976ZM17.6638 12.3364L18.1057 11.8945C17.8564 11.6451 17.6488 11.43 17.4151 11.295L17.1026 11.8363L16.7901 12.3776C16.8454 12.4095 16.9156 12.4721 17.2218 12.7783L17.6638 12.3364ZM15.2741 12.3364L15.716 12.7783C16.0223 12.4721 16.0925 12.4095 16.1478 12.3776L15.8353 11.8363L15.5228 11.295C15.289 11.43 15.0815 11.6451 14.8321 11.8945L15.2741 12.3364ZM17.1026 11.8363L17.4151 11.295C16.8296 10.957 16.1082 10.957 15.5228 11.295L15.8353 11.8363L16.1478 12.3776C16.3465 12.2628 16.5913 12.2628 16.7901 12.3776L17.1026 11.8363ZM14.9072 17.4826L14.4653 17.0407C14.3023 17.2036 14.0797 17.309 13.7633 17.3898C13.6048 17.4302 13.4357 17.4615 13.2472 17.4941C13.0662 17.5253 12.8589 17.5591 12.6594 17.6018L12.7901 18.2129L12.9208 18.8241C13.0889 18.7882 13.2613 18.7602 13.4601 18.7258C13.6515 18.6927 13.8625 18.6545 14.0725 18.6009C14.4931 18.4935 14.9614 18.3123 15.3492 17.9246L14.9072 17.4826ZM11.7872 17.2101L12.3984 17.3408C12.4411 17.1413 12.4748 16.934 12.5061 16.7529C12.5387 16.5645 12.5699 16.3954 12.6104 16.2369C12.6912 15.9205 12.7966 15.6978 12.9595 15.5349L12.5176 15.0929L12.0756 14.651C11.6878 15.0388 11.5067 15.507 11.3993 15.9277C11.3456 16.1377 11.3074 16.3487 11.2743 16.5401C11.24 16.7389 11.212 16.9112 11.176 17.0794L11.7872 17.2101Z" fill="#6B6B6B"/>
</svg>
