<svg width="20" height="20" viewBox="0 0 20 20" fill="none" xmlns="http://www.w3.org/2000/svg">
<path fill-rule="evenodd" clip-rule="evenodd" d="M18.958 5.83325C18.958 6.17843 18.6782 6.45825 18.333 6.45825L1.66634 6.45825C1.32116 6.45825 1.04134 6.17843 1.04134 5.83325C1.04134 5.48807 1.32116 5.20825 1.66634 5.20825L18.333 5.20825C18.6782 5.20825 18.958 5.48807 18.958 5.83325Z" fill="#6B6B6B"/>
<path fill-rule="evenodd" clip-rule="evenodd" d="M16.458 10C16.458 10.3452 16.1782 10.625 15.833 10.625L4.16634 10.625C3.82116 10.625 3.54134 10.3452 3.54134 10C3.54134 9.65482 3.82116 9.375 4.16634 9.375L15.833 9.375C16.1782 9.375 16.458 9.65482 16.458 10Z" fill="#6B6B6B"/>
<path fill-rule="evenodd" clip-rule="evenodd" d="M13.958 14.1667C13.958 14.5119 13.6782 14.7917 13.333 14.7917L6.66634 14.7917C6.32116 14.7917 6.04134 14.5119 6.04134 14.1667C6.04134 13.8216 6.32116 13.5417 6.66634 13.5417H13.333C13.6782 13.5417 13.958 13.8216 13.958 14.1667Z" fill="#6B6B6B"/>
</svg>
