<svg width="20" height="20" viewBox="0 0 20 20" fill="none" xmlns="http://www.w3.org/2000/svg">
<path d="M13.333 14.1667L7.49967 14.1667" stroke="#6B6B6B" stroke-width="1.5" stroke-linecap="round" stroke-linejoin="round"/>
<path d="M13.333 10.8335L10.833 10.8335" stroke="#6B6B6B" stroke-width="1.5" stroke-linecap="round" stroke-linejoin="round"/>
<path d="M17.083 11.6668C17.083 14.8095 17.083 16.3809 16.0457 17.3572C15.0083 18.3335 13.3388 18.3335 9.99967 18.3335H9.35574C6.63806 18.3335 5.27923 18.3335 4.33557 17.6686C4.06519 17.4781 3.82516 17.2522 3.62276 16.9978C2.91634 16.1096 2.91634 14.8307 2.91634 12.2729V10.1517C2.91634 7.68237 2.91634 6.44771 3.30712 5.46162C3.93535 3.87635 5.26395 2.6259 6.94831 2.03462C7.99603 1.66683 9.30785 1.66683 11.9315 1.66683C13.4307 1.66683 14.1803 1.66683 14.779 1.877C15.7415 2.21487 16.5007 2.92941 16.8597 3.83528C17.083 4.39876 17.083 5.10428 17.083 6.51531V11.6668Z" stroke="#6B6B6B" stroke-width="1.5" stroke-linejoin="round"/>
<path d="M2.91667 10C2.91667 8.46588 4.16032 7.22222 5.69444 7.22222C6.24926 7.22222 6.90336 7.31944 7.4428 7.1749C7.9221 7.04647 8.29647 6.6721 8.4249 6.1928C8.56944 5.65336 8.47222 4.99926 8.47222 4.44444C8.47222 2.91032 9.71588 1.66667 11.25 1.66667" stroke="#6B6B6B" stroke-width="1.5" stroke-linecap="round" stroke-linejoin="round"/>
</svg>
