<svg width="20" height="20" viewBox="0 0 20 20" fill="none" xmlns="http://www.w3.org/2000/svg">
<path d="M16.6667 9.16663V8.33329C16.6667 5.1906 16.6667 3.61925 15.633 2.64294C14.5993 1.66663 12.9355 1.66663 9.60793 1.66663L8.72557 1.66663C5.39801 1.66663 3.73423 1.66663 2.70049 2.64294C1.66675 3.61925 1.66675 5.1906 1.66675 8.33329L1.66675 11.6666C1.66675 14.8093 1.66675 16.3807 2.70049 17.357C3.73423 18.3333 5.39801 18.3333 8.72557 18.3333H9.16675" stroke="#6B6B6B" stroke-width="1.25" stroke-linecap="round"/>
<path d="M5.8335 5.83325H12.5002" stroke="#6B6B6B" stroke-width="1.25" stroke-linecap="round"/>
<path d="M5.8335 10H12.5002" stroke="#6B6B6B" stroke-width="1.25" stroke-linecap="round"/>
<path d="M12.7898 18.2129L12.6592 17.6018H12.6592L12.7898 18.2129ZM11.787 17.2101L12.3982 17.3408L11.787 17.2101ZM12.5173 15.0929L12.0754 14.651L12.5173 15.0929ZM14.907 17.4826L14.465 17.0407L14.907 17.4826ZM18.1636 12.8976L18.7049 12.5851L18.1636 12.8976ZM17.6635 14.7261L18.1055 15.168L17.6635 14.7261ZM18.1636 14.1649L18.7049 14.4774L18.1636 14.1649ZM17.1023 11.8363L17.4148 11.295V11.295L17.1023 11.8363ZM15.2738 12.3364L15.7158 12.7783L15.2738 12.3364ZM15.835 11.8363L15.5225 11.295V11.295L15.835 11.8363ZM17.6635 14.7261L17.2216 14.2841L14.465 17.0407L14.907 17.4826L15.3489 17.9246L18.1055 15.168L17.6635 14.7261ZM12.5173 15.0929L12.9593 15.5349L15.7158 12.7783L15.2738 12.3364L14.8319 11.8945L12.0754 14.651L12.5173 15.0929ZM12.7898 18.2129L12.6592 17.6018C12.513 17.633 12.3961 17.6579 12.2958 17.6766C12.1945 17.6954 12.1281 17.7043 12.0831 17.7072C12.0368 17.7101 12.04 17.7047 12.0689 17.7121C12.1081 17.7222 12.1614 17.7475 12.2069 17.793L11.765 18.2349L11.3231 18.6769C11.5929 18.9467 11.9299 18.9695 12.1624 18.9547C12.3836 18.9406 12.6533 18.8813 12.9205 18.8241L12.7898 18.2129ZM11.787 17.2101L11.1758 17.0794C11.1187 17.3466 11.0593 17.6163 11.0452 17.8375C11.0305 18.07 11.0532 18.407 11.3231 18.6769L11.765 18.2349L12.2069 17.793C12.2524 17.8385 12.2777 17.8918 12.2878 17.9311C12.2953 17.9599 12.2898 17.9631 12.2927 17.9169C12.2956 17.8718 12.3045 17.8055 12.3233 17.7042C12.342 17.6038 12.3669 17.487 12.3982 17.3408L11.787 17.2101ZM17.6635 12.3364L17.2216 12.7783C17.5278 13.0846 17.5904 13.1548 17.6224 13.2101L18.1636 12.8976L18.7049 12.5851C18.57 12.3514 18.3548 12.1438 18.1055 11.8945L17.6635 12.3364ZM17.6635 14.7261L18.1055 15.168C18.3548 14.9187 18.57 14.7111 18.7049 14.4774L18.1636 14.1649L17.6224 13.8524C17.5904 13.9077 17.5278 13.9779 17.2216 14.2841L17.6635 14.7261ZM18.1636 12.8976L17.6224 13.2101C17.7371 13.4088 17.7371 13.6537 17.6224 13.8524L18.1636 14.1649L18.7049 14.4774C19.0429 13.8919 19.0429 13.1706 18.7049 12.5851L18.1636 12.8976ZM17.6635 12.3364L18.1055 11.8945C17.8561 11.6451 17.6486 11.43 17.4148 11.295L17.1023 11.8363L16.7898 12.3776C16.8451 12.4095 16.9153 12.4721 17.2216 12.7783L17.6635 12.3364ZM15.2738 12.3364L15.7158 12.7783C16.022 12.4721 16.0922 12.4095 16.1475 12.3776L15.835 11.8363L15.5225 11.295C15.2888 11.43 15.0812 11.6451 14.8319 11.8945L15.2738 12.3364ZM17.1023 11.8363L17.4148 11.295C16.8294 10.957 16.108 10.957 15.5225 11.295L15.835 11.8363L16.1475 12.3776C16.3463 12.2628 16.5911 12.2628 16.7898 12.3776L17.1023 11.8363ZM14.907 17.4826L14.465 17.0407C14.3021 17.2036 14.0794 17.309 13.763 17.3898C13.6045 17.4302 13.4354 17.4615 13.247 17.4941C13.0659 17.5253 12.8586 17.5591 12.6592 17.6018L12.7898 18.2129L12.9205 18.8241C13.0887 18.7882 13.261 18.7602 13.4598 18.7258C13.6512 18.6927 13.8622 18.6545 14.0722 18.6009C14.4929 18.4935 14.9612 18.3123 15.3489 17.9246L14.907 17.4826ZM11.787 17.2101L12.3982 17.3408C12.4408 17.1413 12.4746 16.934 12.5059 16.7529C12.5384 16.5645 12.5697 16.3954 12.6102 16.2369C12.6909 15.9205 12.7963 15.6978 12.9593 15.5349L12.5173 15.0929L12.0754 14.651C11.6876 15.0388 11.5064 15.507 11.399 15.9277C11.3454 16.1377 11.3072 16.3487 11.2741 16.5401C11.2398 16.7389 11.2118 16.9112 11.1758 17.0794L11.787 17.2101Z" fill="#6B6B6B"/>
</svg>
