<svg width="20" height="20" viewBox="0 0 20 20" fill="none" xmlns="http://www.w3.org/2000/svg">
<path d="M10.4412 1.66663C13.7687 1.66663 15.4325 1.66663 16.4663 2.64294C17.5 3.61925 17.5 5.1906 17.5 8.33329V11.6666C17.5 14.8093 17.5 16.3807 16.4663 17.357C15.4325 18.3333 13.7687 18.3333 10.4412 18.3333H9.55882C6.23126 18.3333 4.56748 18.3333 3.53374 17.357C2.5 16.3807 2.5 14.8093 2.5 11.6666L2.5 8.33329C2.5 5.1906 2.5 3.61925 3.53374 2.64294C4.56748 1.66663 6.23126 1.66663 9.55882 1.66663L10.4412 1.66663Z" stroke="#2A4467" stroke-width="1.25" stroke-linecap="round"/>
<path d="M6.66699 5.83325H13.3337" stroke="#2A4467" stroke-width="1.25" stroke-linecap="round"/>
<path d="M6.66699 10H13.3337" stroke="#2A4467" stroke-width="1.25" stroke-linecap="round"/>
<path d="M6.66699 14.1666H10.0003" stroke="#2A4467" stroke-width="1.25" stroke-linecap="round"/>
</svg>
