<svg width="20" height="20" viewBox="0 0 20 20" fill="none" xmlns="http://www.w3.org/2000/svg">
<path d="M13.3333 14.1667L7.49992 14.1667" stroke="#6B6B6B" stroke-width="1.5" stroke-linecap="round" stroke-linejoin="round"/>
<path d="M13.3333 10.8335L10.8333 10.8335" stroke="#6B6B6B" stroke-width="1.5" stroke-linecap="round" stroke-linejoin="round"/>
<path d="M17.0833 11.6668C17.0833 14.8095 17.0833 16.3809 16.0459 17.3572C15.0086 18.3335 13.339 18.3335 9.99992 18.3335H9.35598C6.63831 18.3335 5.27947 18.3335 4.33581 17.6686C4.06543 17.4781 3.8254 17.2522 3.623 16.9978C2.91659 16.1096 2.91658 14.8307 2.91658 12.2729V10.1517C2.91658 7.68237 2.91658 6.44771 3.30737 5.46162C3.9356 3.87635 5.2642 2.6259 6.94855 2.03462C7.99627 1.66683 9.3081 1.66683 11.9317 1.66683C13.431 1.66683 14.1806 1.66683 14.7793 1.877C15.7418 2.21487 16.501 2.92941 16.8599 3.83528C17.0833 4.39876 17.0833 5.10428 17.0833 6.51531V11.6668Z" stroke="#6B6B6B" stroke-width="1.5" stroke-linejoin="round"/>
<path d="M2.91667 10C2.91667 8.46588 4.16032 7.22222 5.69444 7.22222C6.24926 7.22222 6.90336 7.31944 7.4428 7.1749C7.9221 7.04647 8.29647 6.6721 8.4249 6.1928C8.56944 5.65336 8.47222 4.99926 8.47222 4.44444C8.47222 2.91032 9.71588 1.66667 11.25 1.66667" stroke="#6B6B6B" stroke-width="1.5" stroke-linecap="round" stroke-linejoin="round"/>
</svg>
