<svg width="20" height="20" viewBox="0 0 20 20" fill="none" xmlns="http://www.w3.org/2000/svg">
<path d="M15.5137 16.6667H15.9222C16.8804 16.6667 17.6426 16.2302 18.3269 15.6197C20.0654 14.0689 15.9788 12.5001 14.5837 12.5001M12.917 4.22405C13.1062 4.18652 13.3027 4.16675 13.5043 4.16675C15.0209 4.16675 16.2503 5.28604 16.2503 6.66675C16.2503 8.04746 15.0209 9.16675 13.5043 9.16675C13.3027 9.16675 13.1062 9.14697 12.917 9.10944" stroke="#6B6B6B" stroke-width="1.25" stroke-linecap="round"/>
<path d="M3.73443 13.4261C2.75195 13.9526 0.175948 15.0277 1.7449 16.3729C2.51133 17.0301 3.36492 17.5001 4.4381 17.5001H10.5619C11.6351 17.5001 12.4887 17.0301 13.2551 16.3729C14.8241 15.0277 12.2481 13.9526 11.2656 13.4261C8.96167 12.1914 6.03832 12.1914 3.73443 13.4261Z" stroke="#6B6B6B" stroke-width="1.25"/>
<path d="M10.8333 6.25008C10.8333 8.09103 9.34095 9.58341 7.5 9.58341C5.65905 9.58341 4.16667 8.09103 4.16667 6.25008C4.16667 4.40913 5.65905 2.91675 7.5 2.91675C9.34095 2.91675 10.8333 4.40913 10.8333 6.25008Z" stroke="#6B6B6B" stroke-width="1.25"/>
</svg>
