<svg width="20" height="20" viewBox="0 0 20 20" fill="none" xmlns="http://www.w3.org/2000/svg">
<path d="M13.333 14.1665L7.49967 14.1665" stroke="#6B6B6B" stroke-width="1.5" stroke-linecap="round" stroke-linejoin="round"/>
<path d="M13.333 10.8333L10.833 10.8333" stroke="#6B6B6B" stroke-width="1.5" stroke-linecap="round" stroke-linejoin="round"/>
<path d="M17.083 11.6666C17.083 14.8093 17.083 16.3806 16.0457 17.3569C15.0083 18.3333 13.3388 18.3333 9.99967 18.3333H9.35574C6.63806 18.3333 5.27923 18.3333 4.33557 17.6684C4.06519 17.4779 3.82516 17.252 3.62276 16.9975C2.91634 16.1094 2.91634 14.8305 2.91634 12.2726V10.1514C2.91634 7.68212 2.91634 6.44747 3.30712 5.46138C3.93535 3.8761 5.26395 2.62566 6.94831 2.03438C7.99603 1.66659 9.30785 1.66659 11.9315 1.66659C13.4307 1.66659 14.1803 1.66659 14.779 1.87675C15.7415 2.21463 16.5007 2.92917 16.8597 3.83504C17.083 4.39852 17.083 5.10404 17.083 6.51507V11.6666Z" stroke="#6B6B6B" stroke-width="1.5" stroke-linejoin="round"/>
<path d="M2.91667 10C2.91667 8.46588 4.16032 7.22222 5.69444 7.22222C6.24926 7.22222 6.90336 7.31944 7.4428 7.1749C7.9221 7.04647 8.29647 6.6721 8.4249 6.1928C8.56944 5.65336 8.47222 4.99926 8.47222 4.44444C8.47222 2.91032 9.71588 1.66667 11.25 1.66667" stroke="#6B6B6B" stroke-width="1.5" stroke-linecap="round" stroke-linejoin="round"/>
</svg>
