<svg width="20" height="20" viewBox="0 0 20 20" fill="none" xmlns="http://www.w3.org/2000/svg">
<path d="M16.6666 9.16663V8.33329C16.6666 5.1906 16.6666 3.61925 15.6329 2.64294C14.5991 1.66663 12.9354 1.66663 9.6078 1.66663L8.72545 1.66663C5.39789 1.66663 3.73411 1.66663 2.70037 2.64294C1.66663 3.61925 1.66663 5.1906 1.66663 8.33329L1.66663 11.6666C1.66663 14.8093 1.66663 16.3807 2.70037 17.357C3.73411 18.3333 5.39789 18.3333 8.72545 18.3333H9.16663" stroke="#6B6B6B" stroke-width="1.25" stroke-linecap="round"/>
<path d="M5.83325 5.83325H12.4999" stroke="#6B6B6B" stroke-width="1.25" stroke-linecap="round"/>
<path d="M5.83325 10H12.4999" stroke="#6B6B6B" stroke-width="1.25" stroke-linecap="round"/>
<path d="M12.7897 18.2129L12.659 17.6018H12.659L12.7897 18.2129ZM11.7869 17.2101L12.398 17.3408L11.7869 17.2101ZM12.5172 15.0929L12.0752 14.651L12.5172 15.0929ZM14.9069 17.4826L14.4649 17.0407L14.9069 17.4826ZM18.1635 12.8976L18.7048 12.5851L18.1635 12.8976ZM17.6634 14.7261L18.1053 15.168L17.6634 14.7261ZM18.1635 14.1649L18.7048 14.4774L18.1635 14.1649ZM17.1022 11.8363L17.4147 11.295V11.295L17.1022 11.8363ZM15.2737 12.3364L15.7157 12.7783L15.2737 12.3364ZM15.8349 11.8363L15.5224 11.295V11.295L15.8349 11.8363ZM17.6634 14.7261L17.2215 14.2841L14.4649 17.0407L14.9069 17.4826L15.3488 17.9246L18.1053 15.168L17.6634 14.7261ZM12.5172 15.0929L12.9591 15.5349L15.7157 12.7783L15.2737 12.3364L14.8318 11.8945L12.0752 14.651L12.5172 15.0929ZM12.7897 18.2129L12.659 17.6018C12.5128 17.633 12.396 17.6579 12.2956 17.6766C12.1943 17.6954 12.1279 17.7043 12.0829 17.7072C12.0367 17.7101 12.0399 17.7047 12.0687 17.7121C12.108 17.7222 12.1613 17.7475 12.2068 17.793L11.7649 18.2349L11.3229 18.6769C11.5927 18.9467 11.9298 18.9695 12.1623 18.9547C12.3835 18.9406 12.6532 18.8813 12.9204 18.8241L12.7897 18.2129ZM11.7869 17.2101L11.1757 17.0794C11.1185 17.3466 11.0592 17.6163 11.0451 17.8375C11.0303 18.07 11.0531 18.407 11.3229 18.6769L11.7649 18.2349L12.2068 17.793C12.2523 17.8385 12.2776 17.8918 12.2877 17.9311C12.2951 17.9599 12.2897 17.9631 12.2926 17.9169C12.2955 17.8718 12.3044 17.8055 12.3232 17.7042C12.3419 17.6038 12.3668 17.487 12.398 17.3408L11.7869 17.2101ZM17.6634 12.3364L17.2215 12.7783C17.5277 13.0846 17.5903 13.1548 17.6222 13.2101L18.1635 12.8976L18.7048 12.5851C18.5698 12.3514 18.3547 12.1438 18.1053 11.8945L17.6634 12.3364ZM17.6634 14.7261L18.1053 15.168C18.3547 14.9187 18.5698 14.7111 18.7048 14.4774L18.1635 14.1649L17.6222 13.8524C17.5903 13.9077 17.5277 13.9779 17.2215 14.2841L17.6634 14.7261ZM18.1635 12.8976L17.6222 13.2101C17.737 13.4088 17.737 13.6537 17.6222 13.8524L18.1635 14.1649L18.7048 14.4774C19.0428 13.8919 19.0428 13.1706 18.7048 12.5851L18.1635 12.8976ZM17.6634 12.3364L18.1053 11.8945C17.856 11.6451 17.6484 11.43 17.4147 11.295L17.1022 11.8363L16.7897 12.3776C16.845 12.4095 16.9152 12.4721 17.2215 12.7783L17.6634 12.3364ZM15.2737 12.3364L15.7157 12.7783C16.0219 12.4721 16.0921 12.4095 16.1474 12.3776L15.8349 11.8363L15.5224 11.295C15.2887 11.43 15.0811 11.6451 14.8318 11.8945L15.2737 12.3364ZM17.1022 11.8363L17.4147 11.295C16.8292 10.957 16.1079 10.957 15.5224 11.295L15.8349 11.8363L16.1474 12.3776C16.3461 12.2628 16.591 12.2628 16.7897 12.3776L17.1022 11.8363ZM14.9069 17.4826L14.4649 17.0407C14.302 17.2036 14.0793 17.309 13.7629 17.3898C13.6044 17.4302 13.4353 17.4615 13.2469 17.4941C13.0658 17.5253 12.8585 17.5591 12.659 17.6018L12.7897 18.2129L12.9204 18.8241C13.0886 18.7882 13.2609 18.7602 13.4597 18.7258C13.6511 18.6927 13.8621 18.6545 14.0721 18.6009C14.4928 18.4935 14.961 18.3123 15.3488 17.9246L14.9069 17.4826ZM11.7869 17.2101L12.398 17.3408C12.4407 17.1413 12.4745 16.934 12.5057 16.7529C12.5383 16.5645 12.5696 16.3954 12.61 16.2369C12.6908 15.9205 12.7962 15.6978 12.9591 15.5349L12.5172 15.0929L12.0752 14.651C11.6875 15.0388 11.5063 15.507 11.3989 15.9277C11.3453 16.1377 11.3071 16.3487 11.274 16.5401C11.2396 16.7389 11.2116 16.9112 11.1757 17.0794L11.7869 17.2101Z" fill="#6B6B6B"/>
</svg>
