<svg width="56" height="56" viewBox="0 0 56 56" fill="none" xmlns="http://www.w3.org/2000/svg">
<path d="M46.6664 46.6667C46.4972 46.7936 46.3244 46.916 46.1482 47.0338C43.2056 49 39.1092 49 30.9165 49H27.9998C17.0004 49 11.5007 49 8.08359 45.5829C4.6665 42.1658 4.6665 36.6661 4.6665 25.6666V18.5366C4.6665 14.2982 4.6665 12.1789 5.55391 10.5888C6.09912 9.6118 6.86922 8.78207 7.79729 8.1665" stroke="#2A4467" stroke-opacity="0.5" stroke-width="3.5" stroke-linecap="round"/>
<path d="M25.6663 16.3334H39.083C43.9986 16.3334 46.4564 16.3334 48.222 17.5132C48.9863 18.0239 49.6426 18.6801 50.1533 19.4445C51.333 21.21 51.333 23.6678 51.333 28.5834C51.333 33.5782 51.333 37.0504 50.8875 39.6668M27.9997 16.3334L26.5217 13.3774C25.2972 10.9285 24.1782 8.46339 21.4646 7.4458C20.4823 7.07742 19.3843 7.01353 17.4997 7.00244H16.333" stroke="#2A4467" stroke-opacity="0.5" stroke-width="3.5" stroke-linecap="round"/>
<path d="M4.6665 4.66675L51.3332 51.3334" stroke="#2A4467" stroke-opacity="0.5" stroke-width="3.5" stroke-linecap="round"/>
</svg>
