<svg width="29" height="29" viewBox="0 0 29 29" fill="none" xmlns="http://www.w3.org/2000/svg">
<path d="M15.0354 2.3999C19.8271 2.3999 22.2229 2.3999 23.7115 3.80579C25.2001 5.21168 25.2001 7.47442 25.2001 11.9999V16.7999C25.2001 21.3254 25.2001 23.5881 23.7115 24.994C22.2229 26.3999 19.8271 26.3999 15.0354 26.3999H13.7648C8.97311 26.3999 6.57727 26.3999 5.08868 24.994C3.6001 23.5881 3.6001 21.3254 3.6001 16.7999L3.6001 11.9999C3.6001 7.47442 3.6001 5.21168 5.08869 3.80579C6.57727 2.3999 8.97312 2.3999 13.7648 2.3999L15.0354 2.3999Z" stroke="#43A047" stroke-width="1.8" stroke-linecap="round"/>
<path d="M9.6001 8.3999H19.2001" stroke="#43A047" stroke-width="1.8" stroke-linecap="round"/>
<path d="M9.6001 14.3999H19.2001" stroke="#43A047" stroke-width="1.8" stroke-linecap="round"/>
<path d="M9.6001 20.3999H14.4001" stroke="#43A047" stroke-width="1.8" stroke-linecap="round"/>
</svg>
