<svg width="20" height="20" viewBox="0 0 20 20" fill="none" xmlns="http://www.w3.org/2000/svg">
<path d="M16.6665 9.16663V8.33329C16.6665 5.1906 16.6665 3.61925 15.6328 2.64294C14.599 1.66663 12.9352 1.66663 9.60768 1.66663L8.72533 1.66663C5.39777 1.66663 3.73399 1.66663 2.70025 2.64294C1.6665 3.61925 1.6665 5.1906 1.6665 8.33329L1.6665 11.6666C1.6665 14.8093 1.6665 16.3807 2.70024 17.357C3.73399 18.3333 5.39777 18.3333 8.72533 18.3333H9.1665" stroke="#6B6B6B" stroke-width="1.25" stroke-linecap="round"/>
<path d="M5.83301 5.83325H12.4997" stroke="#6B6B6B" stroke-width="1.25" stroke-linecap="round"/>
<path d="M5.83301 10H12.4997" stroke="#6B6B6B" stroke-width="1.25" stroke-linecap="round"/>
<path d="M12.7896 18.2129L12.6589 17.6018H12.6589L12.7896 18.2129ZM11.7867 17.2101L12.3979 17.3408L11.7867 17.2101ZM12.5171 15.0929L12.0751 14.651L12.5171 15.0929ZM14.9067 17.4826L14.4648 17.0407L14.9067 17.4826ZM18.1634 12.8976L18.7046 12.5851L18.1634 12.8976ZM17.6633 14.7261L18.1052 15.168L17.6633 14.7261ZM18.1634 14.1649L18.7046 14.4774L18.1634 14.1649ZM17.1021 11.8363L17.4146 11.295V11.295L17.1021 11.8363ZM15.2736 12.3364L15.7155 12.7783L15.2736 12.3364ZM15.8348 11.8363L15.5223 11.295V11.295L15.8348 11.8363ZM17.6633 14.7261L17.2213 14.2841L14.4648 17.0407L14.9067 17.4826L15.3487 17.9246L18.1052 15.168L17.6633 14.7261ZM12.5171 15.0929L12.959 15.5349L15.7155 12.7783L15.2736 12.3364L14.8317 11.8945L12.0751 14.651L12.5171 15.0929ZM12.7896 18.2129L12.6589 17.6018C12.5127 17.633 12.3959 17.6579 12.2955 17.6766C12.1942 17.6954 12.1278 17.7043 12.0828 17.7072C12.0366 17.7101 12.0398 17.7047 12.0686 17.7121C12.1078 17.7222 12.1612 17.7475 12.2067 17.793L11.7647 18.2349L11.3228 18.6769C11.5926 18.9467 11.9297 18.9695 12.1621 18.9547C12.3834 18.9406 12.6531 18.8813 12.9203 18.8241L12.7896 18.2129ZM11.7867 17.2101L11.1756 17.0794C11.1184 17.3466 11.0591 17.6163 11.045 17.8375C11.0302 18.07 11.053 18.407 11.3228 18.6769L11.7647 18.2349L12.2067 17.793C12.2522 17.8385 12.2775 17.8918 12.2876 17.9311C12.295 17.9599 12.2895 17.9631 12.2925 17.9169C12.2953 17.8718 12.3042 17.8055 12.3231 17.7042C12.3417 17.6038 12.3667 17.487 12.3979 17.3408L11.7867 17.2101ZM17.6633 12.3364L17.2213 12.7783C17.5276 13.0846 17.5902 13.1548 17.6221 13.2101L18.1634 12.8976L18.7046 12.5851C18.5697 12.3514 18.3546 12.1438 18.1052 11.8945L17.6633 12.3364ZM17.6633 14.7261L18.1052 15.168C18.3546 14.9187 18.5697 14.7111 18.7046 14.4774L18.1634 14.1649L17.6221 13.8524C17.5902 13.9077 17.5276 13.9779 17.2213 14.2841L17.6633 14.7261ZM18.1634 12.8976L17.6221 13.2101C17.7369 13.4088 17.7369 13.6537 17.6221 13.8524L18.1634 14.1649L18.7046 14.4774C19.0427 13.8919 19.0427 13.1706 18.7046 12.5851L18.1634 12.8976ZM17.6633 12.3364L18.1052 11.8945C17.8559 11.6451 17.6483 11.43 17.4146 11.295L17.1021 11.8363L16.7896 12.3776C16.8449 12.4095 16.9151 12.4721 17.2213 12.7783L17.6633 12.3364ZM15.2736 12.3364L15.7155 12.7783C16.0218 12.4721 16.092 12.4095 16.1473 12.3776L15.8348 11.8363L15.5223 11.295C15.2886 11.43 15.081 11.6451 14.8317 11.8945L15.2736 12.3364ZM17.1021 11.8363L17.4146 11.295C16.8291 10.957 16.1078 10.957 15.5223 11.295L15.8348 11.8363L16.1473 12.3776C16.346 12.2628 16.5909 12.2628 16.7896 12.3776L17.1021 11.8363ZM14.9067 17.4826L14.4648 17.0407C14.3019 17.2036 14.0792 17.309 13.7628 17.3898C13.6043 17.4302 13.4352 17.4615 13.2468 17.4941C13.0657 17.5253 12.8584 17.5591 12.6589 17.6018L12.7896 18.2129L12.9203 18.8241C13.0885 18.7882 13.2608 18.7602 13.4596 18.7258C13.651 18.6927 13.862 18.6545 14.072 18.6009C14.4926 18.4935 14.9609 18.3123 15.3487 17.9246L14.9067 17.4826ZM11.7867 17.2101L12.3979 17.3408C12.4406 17.1413 12.4743 16.934 12.5056 16.7529C12.5382 16.5645 12.5695 16.3954 12.6099 16.2369C12.6907 15.9205 12.7961 15.6978 12.959 15.5349L12.5171 15.0929L12.0751 14.651C11.6874 15.0388 11.5062 15.507 11.3988 15.9277C11.3451 16.1377 11.3069 16.3487 11.2739 16.5401C11.2395 16.7389 11.2115 16.9112 11.1756 17.0794L11.7867 17.2101Z" fill="#6B6B6B"/>
</svg>
