<svg width="20" height="20" viewBox="0 0 20 20" fill="none" xmlns="http://www.w3.org/2000/svg">
<path d="M1.66663 9.99984C1.66663 6.07147 1.66663 4.10728 2.88701 2.88689C4.1074 1.6665 6.07159 1.6665 9.99996 1.6665C13.9283 1.6665 15.8925 1.6665 17.1129 2.88689C18.3333 4.10728 18.3333 6.07147 18.3333 9.99984C18.3333 13.9282 18.3333 15.8924 17.1129 17.1128C15.8925 18.3332 13.9283 18.3332 9.99996 18.3332C6.07159 18.3332 4.1074 18.3332 2.88701 17.1128C1.66663 15.8924 1.66663 13.9282 1.66663 9.99984Z" stroke="#6C727E" stroke-width="1.25"/>
<path d="M5.83337 15L5.83337 12.5" stroke="#6C727E" stroke-width="1.25" stroke-linecap="round"/>
<path d="M10 15V10" stroke="#6C727E" stroke-width="1.25" stroke-linecap="round"/>
<path d="M14.1666 15V7.5" stroke="#6C727E" stroke-width="1.25" stroke-linecap="round"/>
</svg>
