<svg width="20" height="20" viewBox="0 0 20 20" fill="none" xmlns="http://www.w3.org/2000/svg">
<path d="M1.66663 10.0002C1.66663 6.85747 1.66663 5.28612 2.64294 4.30981C3.61925 3.3335 5.1906 3.3335 8.33329 3.3335H11.6666C14.8093 3.3335 16.3807 3.3335 17.357 4.30981C18.3333 5.28612 18.3333 6.85747 18.3333 10.0002C18.3333 13.1429 18.3333 14.7142 17.357 15.6905C16.3807 16.6668 14.8093 16.6668 11.6666 16.6668H8.33329C5.1906 16.6668 3.61925 16.6668 2.64294 15.6905C1.66663 14.7142 1.66663 13.1429 1.66663 10.0002Z" stroke="#6C727E" stroke-width="1.25"/>
<path d="M5 6.6665L6.79908 8.16574C8.32961 9.44118 9.09488 10.0789 10 10.0789C10.9051 10.0789 11.6704 9.44118 13.2009 8.16574L15 6.6665" stroke="#6C727E" stroke-width="1.25" stroke-linecap="round"/>
</svg>
