<svg width="20" height="20" viewBox="0 0 20 20" fill="none" xmlns="http://www.w3.org/2000/svg">
<path d="M2.5 10C2.5 13.1427 2.5 16.3807 3.59835 17.357C4.6967 18.3333 6.46447 18.3333 10 18.3333C13.5355 18.3333 15.3033 18.3333 16.4016 17.357C17.5 16.3807 17.5 13.1427 17.5 10" stroke="#6C727E" stroke-width="1.25"/>
<path d="M12.2169 11.8348L17.223 10.3329C17.7192 10.1841 17.9673 10.1096 18.1248 9.93121C18.1555 9.89646 18.1832 9.8592 18.2076 9.81984C18.3333 9.61776 18.3333 9.35871 18.3333 8.84061C18.3333 6.79882 18.3333 5.77792 17.7725 5.08867C17.6647 4.95619 17.5436 4.83511 17.4111 4.72732C16.7219 4.1665 15.701 4.1665 13.6592 4.1665H6.34073C4.29894 4.1665 3.27804 4.1665 2.58879 4.72732C2.45631 4.83511 2.33523 4.95619 2.22744 5.08867C1.66663 5.77792 1.66663 6.79882 1.66663 8.84061C1.66663 9.35871 1.66663 9.61776 1.79227 9.81984C1.81675 9.8592 1.84447 9.89646 1.87514 9.93121C2.03258 10.1096 2.28071 10.1841 2.77696 10.3329L7.78303 11.8348" stroke="#6C727E" stroke-width="1.25"/>
<path d="M5.41663 4.1665C6.10283 4.14911 6.79933 3.71226 7.03283 3.06677C7.04001 3.04691 7.04737 3.02483 7.0621 2.98065L7.08348 2.9165C7.11864 2.81104 7.13622 2.75829 7.15503 2.7115C7.39519 2.11411 7.95797 1.70848 8.60066 1.66955C8.65099 1.6665 8.70658 1.6665 8.81776 1.6665H11.1825C11.2937 1.6665 11.3493 1.6665 11.3996 1.66955C12.0423 1.70848 12.6051 2.11411 12.8453 2.7115C12.8641 2.75829 12.8817 2.81103 12.9168 2.9165L12.9382 2.98065C12.9528 3.02457 12.9603 3.04697 12.9675 3.06677C13.201 3.71226 13.8971 4.14911 14.5833 4.1665" stroke="#6C727E" stroke-width="1.25"/>
<path d="M11.6666 10.4165H8.33329C8.10317 10.4165 7.91663 10.6031 7.91663 10.8332V12.6344C7.91663 12.8048 8.02036 12.958 8.17855 13.0213L8.76199 13.2546C9.55669 13.5725 10.4432 13.5725 11.2379 13.2546L11.8214 13.0213C11.9796 12.958 12.0833 12.8048 12.0833 12.6344V10.8332C12.0833 10.6031 11.8967 10.4165 11.6666 10.4165Z" stroke="#6C727E" stroke-width="1.25" stroke-linecap="round"/>
</svg>
