<svg width="20" height="20" viewBox="0 0 20 20" fill="none" xmlns="http://www.w3.org/2000/svg">
<path d="M15.5134 16.667H15.9219C16.8801 16.667 17.6423 16.2304 18.3266 15.62C20.0651 14.0691 15.9785 12.5003 14.5834 12.5003M12.9167 4.2243C13.1059 4.18677 13.3024 4.16699 13.504 4.16699C15.0206 4.16699 16.25 5.28628 16.25 6.66699C16.25 8.0477 15.0206 9.16699 13.504 9.16699C13.3024 9.16699 13.1059 9.14722 12.9167 9.10969" stroke="#6B6B6B" stroke-width="1.25" stroke-linecap="round"/>
<path d="M3.73443 13.4263C2.75195 13.9528 0.175948 15.0279 1.7449 16.3732C2.51133 17.0303 3.36492 17.5003 4.4381 17.5003H10.5619C11.6351 17.5003 12.4887 17.0303 13.2551 16.3732C14.8241 15.0279 12.2481 13.9528 11.2656 13.4263C8.96167 12.1917 6.03832 12.1917 3.73443 13.4263Z" stroke="#6B6B6B" stroke-width="1.25"/>
<path d="M10.8333 6.25033C10.8333 8.09127 9.34095 9.58366 7.5 9.58366C5.65905 9.58366 4.16667 8.09127 4.16667 6.25033C4.16667 4.40938 5.65905 2.91699 7.5 2.91699C9.34095 2.91699 10.8333 4.40938 10.8333 6.25033Z" stroke="#6B6B6B" stroke-width="1.25"/>
</svg>
