<svg width="29" height="29" viewBox="0 0 29 29" fill="none" xmlns="http://www.w3.org/2000/svg">
<path d="M19.2 20.4004L10.8 20.4004" stroke="#0F0F0F" stroke-width="2.16" stroke-linecap="round" stroke-linejoin="round"/>
<path d="M19.2 15.6006L15.6 15.6006" stroke="#0F0F0F" stroke-width="2.16" stroke-linecap="round" stroke-linejoin="round"/>
<path d="M24.5999 16.8004C24.5999 21.3259 24.5999 23.5886 23.1061 24.9945C21.6123 26.4004 19.2082 26.4004 14.3999 26.4004H13.4726C9.55913 26.4004 7.60241 26.4004 6.24354 25.443C5.8542 25.1687 5.50855 24.8434 5.21709 24.4769C4.19985 23.198 4.19985 21.3564 4.19985 17.6731V14.6186C4.19985 11.0628 4.19985 9.28486 4.76258 7.86489C5.66723 5.5821 7.58042 3.78145 10.0059 2.93001C11.5146 2.40039 13.4036 2.40039 17.1817 2.40039C19.3406 2.40039 20.42 2.40039 21.2821 2.70303C22.6681 3.18957 23.7614 4.21851 24.2783 5.52296C24.5999 6.33437 24.5999 7.35032 24.5999 9.38221V16.8004Z" stroke="#0F0F0F" stroke-width="2.16" stroke-linejoin="round"/>
<path d="M4.19995 14.4004C4.19995 12.1913 5.99081 10.4004 8.19995 10.4004C8.99889 10.4004 9.9408 10.5404 10.7176 10.3322C11.4078 10.1473 11.9469 9.60821 12.1318 8.91803C12.3399 8.14123 12.2 7.19933 12.2 6.40039C12.2 4.19125 13.9908 2.40039 16.2 2.40039" stroke="#0F0F0F" stroke-width="2.16" stroke-linecap="round" stroke-linejoin="round"/>
</svg>
