<svg width="13" height="13" viewBox="0 0 13 13" fill="none" xmlns="http://www.w3.org/2000/svg">
<g clip-path="url(#clip0_4453_70257)">
<path d="M0.972146 4.4672C0.70626 4.4672 0.477764 4.3758 0.286658 4.19301C0.0955528 4.01021 0 3.78587 0 3.51998C0 3.2541 0.0955528 3.0256 0.286658 2.8345C0.477764 2.64339 0.70626 2.54784 0.972146 2.54784C1.23803 2.54784 1.46237 2.64339 1.64517 2.8345C1.82797 3.0256 1.91937 3.2541 1.91937 3.51998C1.91937 3.78587 1.82797 4.01021 1.64517 4.19301C1.46237 4.3758 1.23803 4.4672 0.972146 4.4672ZM2.56746 3.19593H8.30063V3.84403H2.56746V3.19593ZM0.972146 7.65784C0.70626 7.65784 0.477764 7.56644 0.286658 7.38364C0.0955528 7.20084 0 6.9765 0 6.71062C0 6.44473 0.0955528 6.21623 0.286658 6.02513C0.477764 5.83402 0.70626 5.73847 0.972146 5.73847C1.23803 5.73847 1.46237 5.83402 1.64517 6.02513C1.82797 6.21623 1.91937 6.44473 1.91937 6.71062C1.91937 6.9765 1.82797 7.20084 1.64517 7.38364C1.46237 7.56644 1.23803 7.65784 0.972146 7.65784ZM2.56746 6.38657H8.30063V7.03466H2.56746V6.38657ZM0.972146 10.8485C0.70626 10.8485 0.477764 10.7571 0.286658 10.5743C0.0955528 10.3915 0 10.1671 0 9.90125C0 9.63536 0.0955528 9.40687 0.286658 9.21576C0.477764 9.02466 0.70626 8.9291 0.972146 8.9291C1.23803 8.9291 1.46237 9.02466 1.64517 9.21576C1.82797 9.40687 1.91937 9.63536 1.91937 9.90125C1.91937 10.1671 1.82797 10.3915 1.64517 10.5743C1.46237 10.7571 1.23803 10.8485 0.972146 10.8485ZM2.56746 9.5772H8.30063V10.2253H2.56746V9.5772Z" fill="#50575E"/>
</g>
<defs>
<clipPath id="clip0_4453_70257">
<rect width="12.7625" height="12.7625" fill="white" transform="matrix(1 0 0 -1 0 12.7625)"/>
</clipPath>
</defs>
</svg>
