<svg width="20" height="20" viewBox="0 0 20 20" fill="none" xmlns="http://www.w3.org/2000/svg">
<path d="M10.4412 1.6665C13.7687 1.6665 15.4325 1.6665 16.4663 2.64281C17.5 3.61913 17.5 5.19047 17.5 8.33317V11.6665C17.5 14.8092 17.5 16.3805 16.4663 17.3569C15.4325 18.3332 13.7687 18.3332 10.4412 18.3332H9.55882C6.23126 18.3332 4.56748 18.3332 3.53374 17.3569C2.5 16.3805 2.5 14.8092 2.5 11.6665L2.5 8.33317C2.5 5.19047 2.5 3.61913 3.53374 2.64281C4.56748 1.6665 6.23126 1.6665 9.55882 1.6665L10.4412 1.6665Z" stroke="#2A4467" stroke-width="1.25" stroke-linecap="round"/>
<path d="M6.6665 5.83301H13.3332" stroke="#2A4467" stroke-width="1.25" stroke-linecap="round"/>
<path d="M6.6665 10H13.3332" stroke="#2A4467" stroke-width="1.25" stroke-linecap="round"/>
<path d="M6.6665 14.1665H9.99984" stroke="#2A4467" stroke-width="1.25" stroke-linecap="round"/>
</svg>
