<svg width="20" height="20" viewBox="0 0 20 20" fill="none" xmlns="http://www.w3.org/2000/svg">
<g clip-path="url(#clip0_4667_10098)">
<path d="M12.5 14.1665C11.8337 14.6851 10.9585 14.9998 10 14.9998C9.04146 14.9998 8.16627 14.6851 7.5 14.1665" stroke="#6B6B6B" stroke-width="1.5" stroke-linecap="round"/>
<path d="M1.95957 11.011C1.66539 9.0967 1.5183 8.13953 1.88022 7.29098C2.24214 6.44244 3.0451 5.86186 4.65103 4.70072L5.8509 3.83317C7.84866 2.38873 8.84753 1.6665 10.0001 1.6665C11.1526 1.6665 12.1515 2.38873 14.1493 3.83317L15.3491 4.70072C16.9551 5.86186 17.758 6.44244 18.1199 7.29098C18.4819 8.13953 18.3348 9.0967 18.0406 11.011L17.7897 12.6435C17.3727 15.3573 17.1642 16.7142 16.1909 17.5237C15.2177 18.3332 13.7948 18.3332 10.9491 18.3332H9.05107C6.20536 18.3332 4.7825 18.3332 3.80925 17.5237C2.83599 16.7142 2.62747 15.3573 2.21044 12.6435L1.95957 11.011Z" stroke="#6B6B6B" stroke-width="1.5" stroke-linejoin="round"/>
</g>
<defs>
<clipPath id="clip0_4667_10098">
<rect width="20" height="20" fill="white"/>
</clipPath>
</defs>
</svg>
