<svg width="20" height="20" viewBox="0 0 20 20" fill="none" xmlns="http://www.w3.org/2000/svg">
<path fill-rule="evenodd" clip-rule="evenodd" d="M18.9585 5.83301C18.9585 6.17819 18.6787 6.45801 18.3335 6.45801L1.66683 6.45801C1.32165 6.45801 1.04183 6.17819 1.04183 5.83301C1.04183 5.48783 1.32165 5.20801 1.66683 5.20801L18.3335 5.20801C18.6787 5.20801 18.9585 5.48783 18.9585 5.83301Z" fill="#6B6B6B"/>
<path fill-rule="evenodd" clip-rule="evenodd" d="M16.4585 10C16.4585 10.3452 16.1787 10.625 15.8335 10.625L4.16683 10.625C3.82165 10.625 3.54183 10.3452 3.54183 10C3.54183 9.65482 3.82165 9.375 4.16683 9.375L15.8335 9.375C16.1787 9.375 16.4585 9.65482 16.4585 10Z" fill="#6B6B6B"/>
<path fill-rule="evenodd" clip-rule="evenodd" d="M13.9585 14.167C13.9585 14.5122 13.6787 14.792 13.3335 14.792L6.66683 14.792C6.32165 14.792 6.04183 14.5122 6.04183 14.167C6.04183 13.8218 6.32165 13.542 6.66683 13.542H13.3335C13.6787 13.542 13.9585 13.8218 13.9585 14.167Z" fill="#6B6B6B"/>
</svg>
