<svg width="13" height="13" viewBox="0 0 13 13" fill="none" xmlns="http://www.w3.org/2000/svg">
<g clip-path="url(#clip0_4453_70261)">
<path d="M4.22026 8.43069C4.22026 7.96539 4.08732 7.56656 3.82143 7.2342C3.63864 7.00155 3.38106 6.85199 3.0487 6.78552C2.74958 6.71905 2.47539 6.71074 2.22612 6.76059C2.12641 6.24544 2.26351 5.69705 2.63741 5.11542C3.01131 4.5338 3.48908 4.09342 4.0707 3.7943L3.19826 2.54796C2.21781 3.01326 1.43677 3.67798 0.855142 4.54211C0.173809 5.52256 -0.100386 6.56949 0.0325575 7.68289C0.115647 8.46393 0.364915 9.08294 0.780362 9.53993C1.19581 9.99693 1.71096 10.2254 2.32582 10.2254C2.87421 10.2254 3.32705 10.0634 3.68434 9.73935C4.04162 9.4153 4.22026 8.97908 4.22026 8.43069ZM9.35519 8.43069C9.35519 7.96539 9.22224 7.56656 8.95636 7.2342C8.77356 7.00155 8.51598 6.85199 8.18363 6.78552C7.88451 6.71905 7.61031 6.71074 7.36104 6.76059C7.26133 6.24544 7.39843 5.69705 7.77233 5.11542C8.14624 4.5338 8.624 4.09342 9.20563 3.7943L8.33319 2.54796C7.35273 3.01326 6.57169 3.67798 5.99007 4.54211C5.30873 5.52256 5.03454 6.56949 5.16748 7.68289C5.26719 8.46393 5.52061 9.08294 5.92775 9.53993C6.33489 9.99693 6.8542 10.2254 7.48568 10.2254C8.01745 10.2254 8.46198 10.0634 8.81926 9.73935C9.17655 9.4153 9.35519 8.97908 9.35519 8.43069Z" fill="#50575E"/>
</g>
<defs>
<clipPath id="clip0_4453_70261">
<rect width="12.7625" height="12.7625" fill="white" transform="matrix(1 0 0 -1 0 12.7625)"/>
</clipPath>
</defs>
</svg>
