<svg width="13" height="13" viewBox="0 0 13 13" fill="none" xmlns="http://www.w3.org/2000/svg">
<g clip-path="url(#clip0_4453_70253)">
<path d="M0 2.54784V10.8485H2.89151C3.77226 10.8485 4.46605 10.6366 4.9729 10.2128C5.47974 9.78908 5.73317 9.2033 5.73317 8.45549C5.73317 7.9071 5.62515 7.47504 5.40912 7.1593C5.19309 6.84356 4.8358 6.62753 4.33727 6.5112V6.46135C4.70286 6.39488 4.99367 6.19962 5.2097 5.87557C5.42574 5.55152 5.53375 5.14854 5.53375 4.66662C5.53375 3.93543 5.28864 3.3995 4.79841 3.05884C4.30818 2.71817 3.50637 2.54784 2.39297 2.54784H0ZM1.62024 5.83818V3.99359H2.49268C2.95798 3.99359 3.29865 4.06422 3.51468 4.20547C3.73071 4.34672 3.83873 4.57937 3.83873 4.90342C3.83873 5.22747 3.73902 5.46427 3.53961 5.61384C3.34019 5.7634 3.02445 5.83818 2.59239 5.83818H1.62024ZM1.62024 7.23408H2.64224C3.57284 7.23408 4.03814 7.58305 4.03814 8.28101C4.03814 8.66322 3.93013 8.94572 3.7141 9.12852C3.49806 9.31131 3.1574 9.40271 2.6921 9.40271H1.62024V7.23408Z" fill="#50575E"/>
</g>
<defs>
<clipPath id="clip0_4453_70253">
<rect width="12.7625" height="12.7625" fill="white" transform="matrix(1 0 0 -1 0 12.7625)"/>
</clipPath>
</defs>
</svg>
