<svg width="13" height="13" viewBox="0 0 13 13" fill="none" xmlns="http://www.w3.org/2000/svg">
<g clip-path="url(#clip0_4453_70259)">
<path d="M1.29619 4.46562V1.92308H0.847512L0.0249268 2.57118L0.274195 2.89523L0.573317 2.67089L0.772731 2.4964L0.747805 2.74567V4.46562H1.29619ZM2.56746 3.19435H8.30063V3.84244H2.56746V3.19435ZM1.7698 7.63132V7.18264H0.673024V7.15771L0.997073 6.85859C1.24634 6.62594 1.3959 6.47638 1.44576 6.40991C1.54546 6.29358 1.61193 6.18557 1.64517 6.08586C1.67841 5.98615 1.69502 5.87398 1.69502 5.74935C1.69502 5.62471 1.66594 5.51254 1.60778 5.41283C1.54962 5.31313 1.45822 5.23419 1.33358 5.17603C1.20895 5.11787 1.07601 5.08879 0.934756 5.08879C0.793504 5.08879 0.681333 5.0971 0.598244 5.11371C0.515154 5.13033 0.423756 5.16357 0.324049 5.21342C0.224341 5.26327 0.116325 5.33805 0 5.43776L0.299122 5.78674C0.398829 5.70365 0.494382 5.63718 0.58578 5.58732C0.677179 5.53747 0.772731 5.51254 0.872439 5.51254C0.972146 5.51254 1.04693 5.53747 1.09678 5.58732C1.14663 5.63718 1.17156 5.71196 1.17156 5.81166C1.17156 5.87814 1.1591 5.94461 1.13417 6.01108C1.10924 6.07755 1.07185 6.15233 1.022 6.23542L0.648097 6.60932L0.0249268 7.25742V7.63132H1.7698ZM2.56746 6.38498H8.30063V7.03308H2.56746V6.38498ZM1.74488 8.90259C1.74488 8.70317 1.66594 8.54946 1.50807 8.44144C1.3502 8.33343 1.13832 8.27942 0.872439 8.27942C0.540081 8.27942 0.257577 8.37082 0.0249268 8.55361L0.274195 8.92752C0.39052 8.84443 0.490227 8.79042 0.573317 8.76549C0.656406 8.74056 0.739496 8.7281 0.822585 8.7281C1.07185 8.7281 1.19649 8.82781 1.19649 9.02722C1.19649 9.16017 1.15079 9.25156 1.05939 9.30142C0.967991 9.35127 0.814276 9.3762 0.598244 9.3762H0.423756V9.79995H0.598244C0.830894 9.79995 0.997073 9.82488 1.09678 9.87473C1.19649 9.92459 1.24634 10.016 1.24634 10.1489C1.24634 10.2819 1.20064 10.3774 1.10924 10.4356C1.01785 10.4938 0.880748 10.5228 0.697951 10.5228C0.581626 10.5228 0.465301 10.5104 0.348975 10.4854C0.23265 10.4605 0.116325 10.4148 0 10.3483V10.822C0.216032 10.9217 0.47361 10.9715 0.772731 10.9715C1.10509 10.9715 1.36267 10.9009 1.54546 10.7596C1.72826 10.6184 1.81966 10.4231 1.81966 10.1739C1.81966 10.0077 1.76565 9.87058 1.65763 9.76256C1.54962 9.65455 1.38759 9.59223 1.17156 9.57561V9.55069C1.33774 9.51745 1.47484 9.44267 1.58285 9.32634C1.69087 9.21002 1.74488 9.06877 1.74488 8.90259ZM2.56746 9.57561H8.30063V10.2237H2.56746V9.57561Z" fill="#50575E"/>
</g>
<defs>
<clipPath id="clip0_4453_70259">
<rect width="12.7625" height="12.7625" fill="white" transform="matrix(1 0 0 -1 0 12.7625)"/>
</clipPath>
</defs>
</svg>
