<svg width="20" height="20" viewBox="0 0 20 20" fill="none" xmlns="http://www.w3.org/2000/svg">
<path fill-rule="evenodd" clip-rule="evenodd" d="M11.875 5.41504C11.875 3.68915 13.2741 2.29004 15 2.29004C16.7259 2.29004 18.125 3.68915 18.125 5.41504C18.125 7.14093 16.7259 8.54004 15 8.54004C13.2741 8.54004 11.875 7.14093 11.875 5.41504Z" fill="#0F0F0F"/>
<path fill-rule="evenodd" clip-rule="evenodd" d="M1.875 9.99805C1.875 8.27216 3.27411 6.87305 5 6.87305C6.72589 6.87305 8.125 8.27216 8.125 9.99805C8.125 11.7239 6.72589 13.123 5 13.123C3.27411 13.123 1.875 11.7239 1.875 9.99805Z" fill="#0F0F0F"/>
<path fill-rule="evenodd" clip-rule="evenodd" d="M11.875 14.582C11.875 12.8561 13.2741 11.457 15 11.457C16.7259 11.457 18.125 12.8561 18.125 14.582C18.125 16.3079 16.7259 17.707 15 17.707C13.2741 17.707 11.875 16.3079 11.875 14.582Z" fill="#0F0F0F"/>
<path fill-rule="evenodd" clip-rule="evenodd" d="M13.0388 7.21448L7.62216 9.71404L6.92383 8.20073L12.3405 5.70117L13.0388 7.21448ZM7.62216 10.2845L13.0388 12.7841L12.3405 14.2974L6.92383 11.7978L7.62216 10.2845Z" fill="#0F0F0F"/>
</svg>
