<svg width="20" height="20" viewBox="0 0 20 20" fill="none" xmlns="http://www.w3.org/2000/svg">
<path fill-rule="evenodd" clip-rule="evenodd" d="M11.875 5.41553C11.875 3.68964 13.2741 2.29053 15 2.29053C16.7259 2.29053 18.125 3.68964 18.125 5.41553C18.125 7.14142 16.7259 8.54053 15 8.54053C13.2741 8.54053 11.875 7.14142 11.875 5.41553Z" fill="#6B6B6B"/>
<path fill-rule="evenodd" clip-rule="evenodd" d="M1.875 9.99902C1.875 8.27313 3.27411 6.87402 5 6.87402C6.72589 6.87402 8.125 8.27313 8.125 9.99902C8.125 11.7249 6.72589 13.124 5 13.124C3.27411 13.124 1.875 11.7249 1.875 9.99902Z" fill="#6B6B6B"/>
<path fill-rule="evenodd" clip-rule="evenodd" d="M11.875 14.582C11.875 12.8561 13.2741 11.457 15 11.457C16.7259 11.457 18.125 12.8561 18.125 14.582C18.125 16.3079 16.7259 17.707 15 17.707C13.2741 17.707 11.875 16.3079 11.875 14.582Z" fill="#6B6B6B"/>
<path fill-rule="evenodd" clip-rule="evenodd" d="M13.0388 7.21546L7.62216 9.71502L6.92383 8.2017L12.3405 5.70215L13.0388 7.21546ZM7.62216 10.2855L13.0388 12.785L12.3405 14.2983L6.92383 11.7988L7.62216 10.2855Z" fill="#6B6B6B"/>
</svg>
