<svg width="29" height="29" viewBox="0 0 29 29" fill="none" xmlns="http://www.w3.org/2000/svg">
<path d="M19.2002 20.4004L10.8002 20.4004" stroke="#E53935" stroke-width="2.16" stroke-linecap="round" stroke-linejoin="round"/>
<path d="M19.2002 15.6006L15.6002 15.6006" stroke="#E53935" stroke-width="2.16" stroke-linecap="round" stroke-linejoin="round"/>
<path d="M24.6001 16.8004C24.6001 21.3259 24.6001 23.5886 23.1063 24.9945C21.6126 26.4004 19.2084 26.4004 14.4001 26.4004H13.4728C9.55938 26.4004 7.60265 26.4004 6.24378 25.443C5.85444 25.1687 5.50879 24.8434 5.21734 24.4769C4.2001 23.198 4.2001 21.3564 4.2001 17.6731V14.6186C4.2001 11.0628 4.2001 9.28486 4.76282 7.86489C5.66747 5.5821 7.58066 3.78145 10.0061 2.93001C11.5148 2.40039 13.4039 2.40039 17.1819 2.40039C19.3408 2.40039 20.4202 2.40039 21.2824 2.70303C22.6683 3.18957 23.7616 4.21851 24.2785 5.52296C24.6001 6.33437 24.6001 7.35032 24.6001 9.38221V16.8004Z" stroke="#E53935" stroke-width="2.16" stroke-linejoin="round"/>
<path d="M4.20019 14.4004C4.20019 12.1913 5.99106 10.4004 8.20019 10.4004C8.99914 10.4004 9.94104 10.5404 10.7178 10.3322C11.408 10.1473 11.9471 9.60821 12.132 8.91803C12.3402 8.14123 12.2002 7.19933 12.2002 6.40039C12.2002 4.19125 13.9911 2.40039 16.2002 2.40039" stroke="#E53935" stroke-width="2.16" stroke-linecap="round" stroke-linejoin="round"/>
</svg>
