<svg width="20" height="20" viewBox="0 0 20 20" fill="none" xmlns="http://www.w3.org/2000/svg">
<path d="M15.5132 16.667H15.9217C16.8799 16.667 17.6421 16.2304 18.3264 15.62C20.0649 14.0691 15.9783 12.5003 14.5832 12.5003M12.9165 4.2243C13.1057 4.18677 13.3022 4.16699 13.5038 4.16699C15.0204 4.16699 16.2498 5.28628 16.2498 6.66699C16.2498 8.0477 15.0204 9.16699 13.5038 9.16699C13.3022 9.16699 13.1057 9.14722 12.9165 9.10969" stroke="#6B6B6B" stroke-width="1.25" stroke-linecap="round"/>
<path d="M3.73443 13.4263C2.75195 13.9528 0.175948 15.0279 1.7449 16.3732C2.51133 17.0303 3.36492 17.5003 4.4381 17.5003H10.5619C11.6351 17.5003 12.4887 17.0303 13.2551 16.3732C14.8241 15.0279 12.2481 13.9528 11.2656 13.4263C8.96167 12.1917 6.03832 12.1917 3.73443 13.4263Z" stroke="#6B6B6B" stroke-width="1.25"/>
<path d="M10.8333 6.25033C10.8333 8.09127 9.34095 9.58366 7.5 9.58366C5.65905 9.58366 4.16667 8.09127 4.16667 6.25033C4.16667 4.40938 5.65905 2.91699 7.5 2.91699C9.34095 2.91699 10.8333 4.40938 10.8333 6.25033Z" stroke="#6B6B6B" stroke-width="1.25"/>
</svg>
