<svg width="20" height="20" viewBox="0 0 20 20" fill="none" xmlns="http://www.w3.org/2000/svg">
<g clip-path="url(#clip0_4667_10226)">
<path d="M12.5002 14.166C11.8339 14.6847 10.9587 14.9993 10.0002 14.9993C9.04162 14.9993 8.16642 14.6847 7.50015 14.166" stroke="#6B6B6B" stroke-width="1.5" stroke-linecap="round"/>
<path d="M1.95964 11.0106C1.66545 9.09622 1.51836 8.13904 1.88028 7.2905C2.2422 6.44195 3.04516 5.86138 4.65109 4.70023L5.85097 3.83268C7.84872 2.38824 8.84759 1.66602 10.0001 1.66602C11.1527 1.66602 12.1516 2.38824 14.1493 3.83268L15.3492 4.70023C16.9551 5.86138 17.7581 6.44195 18.12 7.2905C18.4819 8.13904 18.3348 9.09622 18.0406 11.0106L17.7898 12.643C17.3727 15.3568 17.1642 16.7137 16.191 17.5232C15.2177 18.3327 13.7949 18.3327 10.9492 18.3327H9.05113C6.20542 18.3327 4.78257 18.3327 3.80931 17.5232C2.83605 16.7137 2.62753 15.3568 2.2105 12.643L1.95964 11.0106Z" stroke="#6B6B6B" stroke-width="1.5" stroke-linejoin="round"/>
</g>
<defs>
<clipPath id="clip0_4667_10226">
<rect width="20" height="20" fill="white"/>
</clipPath>
</defs>
</svg>
