<svg width="20" height="20" viewBox="0 0 20 20" fill="none" xmlns="http://www.w3.org/2000/svg">
<path d="M10.4412 1.66602C13.7687 1.66602 15.4325 1.66602 16.4663 2.64233C17.5 3.61864 17.5 5.18999 17.5 8.33268V11.666C17.5 14.8087 17.5 16.3801 16.4663 17.3564C15.4325 18.3327 13.7687 18.3327 10.4412 18.3327H9.55882C6.23126 18.3327 4.56748 18.3327 3.53374 17.3564C2.5 16.3801 2.5 14.8087 2.5 11.666L2.5 8.33268C2.5 5.18998 2.5 3.61864 3.53374 2.64233C4.56748 1.66602 6.23126 1.66602 9.55882 1.66602L10.4412 1.66602Z" stroke="#2A4467" stroke-width="1.25" stroke-linecap="round"/>
<path d="M6.66666 5.83203H13.3333" stroke="#2A4467" stroke-width="1.25" stroke-linecap="round"/>
<path d="M6.66666 10H13.3333" stroke="#2A4467" stroke-width="1.25" stroke-linecap="round"/>
<path d="M6.66666 14.166H9.99999" stroke="#2A4467" stroke-width="1.25" stroke-linecap="round"/>
</svg>
