<svg width="20" height="20" viewBox="0 0 20 20" fill="none" xmlns="http://www.w3.org/2000/svg">
<g clip-path="url(#clip0_4667_10738)">
<path d="M12.5001 14.167C11.8339 14.6856 10.9587 15.0003 10.0001 15.0003C9.04159 15.0003 8.16639 14.6856 7.50012 14.167" stroke="#6B6B6B" stroke-width="1.5" stroke-linecap="round"/>
<path d="M1.95962 11.0115C1.66544 9.09719 1.51834 8.14002 1.88026 7.29147C2.24218 6.44292 3.04515 5.86235 4.65108 4.70121L5.85095 3.83366C7.8487 2.38921 8.84758 1.66699 10.0001 1.66699C11.1527 1.66699 12.1516 2.38921 14.1493 3.83366L15.3492 4.70121C16.9551 5.86235 17.7581 6.44292 18.12 7.29147C18.4819 8.14002 18.3348 9.09719 18.0406 11.0115L17.7898 12.644C17.3727 15.3578 17.1642 16.7147 16.191 17.5242C15.2177 18.3337 13.7948 18.3337 10.9491 18.3337H9.05111C6.2054 18.3337 4.78255 18.3337 3.80929 17.5242C2.83604 16.7147 2.62752 15.3578 2.21048 12.644L1.95962 11.0115Z" stroke="#6B6B6B" stroke-width="1.5" stroke-linejoin="round"/>
</g>
<defs>
<clipPath id="clip0_4667_10738">
<rect width="20" height="20" fill="white"/>
</clipPath>
</defs>
</svg>
