<svg width="20" height="20" viewBox="0 0 20 20" fill="none" xmlns="http://www.w3.org/2000/svg">
<path fill-rule="evenodd" clip-rule="evenodd" d="M11.875 5.41602C11.875 3.69013 13.2741 2.29102 15 2.29102C16.7259 2.29102 18.125 3.69013 18.125 5.41602C18.125 7.14191 16.7259 8.54102 15 8.54102C13.2741 8.54102 11.875 7.14191 11.875 5.41602Z" fill="#0F0F0F"/>
<path fill-rule="evenodd" clip-rule="evenodd" d="M1.875 10C1.875 8.27411 3.27411 6.875 5 6.875C6.72589 6.875 8.125 8.27411 8.125 10C8.125 11.7259 6.72589 13.125 5 13.125C3.27411 13.125 1.875 11.7259 1.875 10Z" fill="#0F0F0F"/>
<path fill-rule="evenodd" clip-rule="evenodd" d="M11.875 14.582C11.875 12.8561 13.2741 11.457 15 11.457C16.7259 11.457 18.125 12.8561 18.125 14.582C18.125 16.3079 16.7259 17.707 15 17.707C13.2741 17.707 11.875 16.3079 11.875 14.582Z" fill="#0F0F0F"/>
<path fill-rule="evenodd" clip-rule="evenodd" d="M13.0388 7.21644L7.62216 9.71599L6.92383 8.20268L12.3405 5.70312L13.0388 7.21644ZM7.62216 10.2865L13.0388 12.786L12.3405 14.2993L6.92383 11.7998L7.62216 10.2865Z" fill="#0F0F0F"/>
</svg>
