<svg width="29" height="29" viewBox="0 0 29 29" fill="none" xmlns="http://www.w3.org/2000/svg">
<path d="M19.2 20.4004L10.8 20.4004" stroke="#0F0F0F" stroke-width="2.16" stroke-linecap="round" stroke-linejoin="round"/>
<path d="M19.2 15.5996L15.6 15.5996" stroke="#0F0F0F" stroke-width="2.16" stroke-linecap="round" stroke-linejoin="round"/>
<path d="M24.6 16.8004C24.6 21.3259 24.6 23.5886 23.1063 24.9945C21.6125 26.4004 19.2084 26.4004 14.4 26.4004H13.4728C9.55932 26.4004 7.60259 26.4004 6.24372 25.443C5.85438 25.1687 5.50873 24.8434 5.21728 24.4769C4.20004 23.198 4.20004 21.3564 4.20004 17.6731V14.6186C4.20004 11.0628 4.20003 9.28486 4.76276 7.86489C5.66741 5.5821 7.5806 3.78145 10.0061 2.93001C11.5148 2.40039 13.4038 2.40039 17.1819 2.40039C19.3407 2.40039 20.4202 2.40039 21.2823 2.70303C22.6683 3.18957 23.7615 4.21851 24.2785 5.52296C24.6 6.33437 24.6 7.35032 24.6 9.38221V16.8004Z" stroke="#0F0F0F" stroke-width="2.16" stroke-linejoin="round"/>
<path d="M4.20001 14.4004C4.20001 12.1913 5.99087 10.4004 8.20001 10.4004C8.99895 10.4004 9.94086 10.5404 10.7177 10.3322C11.4078 10.1473 11.9469 9.60821 12.1319 8.91803C12.34 8.14123 12.2 7.19933 12.2 6.40039C12.2 4.19125 13.9909 2.40039 16.2 2.40039" stroke="#0F0F0F" stroke-width="2.16" stroke-linecap="round" stroke-linejoin="round"/>
</svg>
