<svg width="18" height="18" viewBox="0 0 18 18" fill="none" xmlns="http://www.w3.org/2000/svg">
<path fill-rule="evenodd" clip-rule="evenodd" d="M15.75 9C15.75 9.41421 15.4142 9.75 15 9.75L2.99999 9.75C2.58577 9.75 2.24999 9.41421 2.24999 9C2.24999 8.58579 2.58577 8.25 2.99999 8.25L15 8.25C15.4142 8.25 15.75 8.58579 15.75 9Z" fill="#6B6B6B"/>
<path d="M14.2291 9C14.1591 8.88392 14.0124 8.67533 13.852 8.4938C13.5327 8.13242 13.0927 7.71963 12.6333 7.32079C12.1777 6.92518 11.7198 6.55774 11.3745 6.28828C11.2023 6.15386 10.905 5.92932 10.8052 5.8539C10.4717 5.60826 10.4005 5.1388 10.6461 4.80529C10.8917 4.47177 11.3612 4.40052 11.6948 4.64615L11.6975 4.64825C11.8058 4.73004 12.1198 4.96718 12.2974 5.10575C12.6552 5.38501 13.1349 5.76977 13.6167 6.18813C14.0948 6.60326 14.5923 7.0662 14.9761 7.50059C15.1673 7.71692 15.3461 7.94384 15.4812 8.16795C15.6039 8.37147 15.75 8.6676 15.75 8.99997C15.75 9.33235 15.6039 9.62853 15.4812 9.83205C15.3461 10.0562 15.1673 10.2831 14.9761 10.4994C14.5923 10.9338 14.0948 11.3967 13.6167 11.8119C13.1349 12.2302 12.6552 12.615 12.2974 12.8942C12.1198 13.0328 11.806 13.2698 11.6977 13.3516L11.6948 13.3538C11.3612 13.5995 10.8917 13.5282 10.6461 13.1947C10.4005 12.8612 10.4717 12.3917 10.8052 12.1461C10.905 12.0707 11.2023 11.8461 11.3745 11.7117C11.7198 11.4423 12.1777 11.0748 12.6333 10.6792C13.0927 10.2804 13.5327 9.86758 13.852 9.5062C14.0124 9.32467 14.1591 9.11608 14.2291 9Z" fill="#6B6B6B"/>
</svg>
