<svg width="29" height="29" viewBox="0 0 29 29" fill="none" xmlns="http://www.w3.org/2000/svg">
<path d="M19.2 20.4004L10.8 20.4004" stroke="#FACC15" stroke-width="2.16" stroke-linecap="round" stroke-linejoin="round"/>
<path d="M19.2 15.5996L15.6 15.5996" stroke="#FACC15" stroke-width="2.16" stroke-linecap="round" stroke-linejoin="round"/>
<path d="M24.6 16.8004C24.6 21.3259 24.6 23.5886 23.1062 24.9945C21.6125 26.4004 19.2083 26.4004 14.4 26.4004H13.4727C9.55926 26.4004 7.60253 26.4004 6.24366 25.443C5.85432 25.1687 5.50867 24.8434 5.21721 24.4769C4.19997 23.198 4.19997 21.3564 4.19997 17.6731V14.6186C4.19997 11.0628 4.19997 9.28486 4.7627 7.86489C5.66735 5.5821 7.58054 3.78145 10.006 2.93001C11.5147 2.40039 13.4037 2.40039 17.1818 2.40039C19.3407 2.40039 20.4201 2.40039 21.2822 2.70303C22.6682 3.18957 23.7615 4.21851 24.2784 5.52296C24.6 6.33437 24.6 7.35032 24.6 9.38221V16.8004Z" stroke="#FACC15" stroke-width="2.16" stroke-linejoin="round"/>
<path d="M4.19995 14.4004C4.19995 12.1913 5.99081 10.4004 8.19995 10.4004C8.99889 10.4004 9.9408 10.5404 10.7176 10.3322C11.4078 10.1473 11.9469 9.60821 12.1318 8.91803C12.3399 8.14123 12.2 7.19933 12.2 6.40039C12.2 4.19125 13.9908 2.40039 16.2 2.40039" stroke="#FACC15" stroke-width="2.16" stroke-linecap="round" stroke-linejoin="round"/>
</svg>
