<svg width="29" height="29" viewBox="0 0 29 29" fill="none" xmlns="http://www.w3.org/2000/svg">
<path d="M15.0353 2.40039C19.827 2.40039 22.2228 2.40039 23.7114 3.80628C25.2 5.21217 25.2 7.47491 25.2 12.0004V16.8004C25.2 21.3259 25.2 23.5886 23.7114 24.9945C22.2228 26.4004 19.827 26.4004 15.0353 26.4004H13.7647C8.97299 26.4004 6.57715 26.4004 5.08856 24.9945C3.59998 23.5886 3.59998 21.3259 3.59998 16.8004L3.59998 12.0004C3.59998 7.47491 3.59998 5.21217 5.08856 3.80628C6.57715 2.40039 8.97299 2.40039 13.7647 2.40039L15.0353 2.40039Z" stroke="#6B6B6B" stroke-width="1.8" stroke-linecap="round"/>
<path d="M9.59998 8.40039H19.2" stroke="#6B6B6B" stroke-width="1.8" stroke-linecap="round"/>
<path d="M9.59998 14.4004H19.2" stroke="#6B6B6B" stroke-width="1.8" stroke-linecap="round"/>
<path d="M9.59998 20.4004H14.4" stroke="#6B6B6B" stroke-width="1.8" stroke-linecap="round"/>
</svg>
