<svg width="20" height="20" viewBox="0 0 20 20" fill="none" xmlns="http://www.w3.org/2000/svg">
<path d="M15.5134 16.666H15.9219C16.8801 16.666 17.6423 16.2294 18.3266 15.619C20.065 14.0682 15.9784 12.4993 14.5833 12.4993M12.9167 4.22332C13.1059 4.18579 13.3024 4.16602 13.504 4.16602C15.0206 4.16602 16.25 5.2853 16.25 6.66602C16.25 8.04673 15.0206 9.16602 13.504 9.16602C13.3024 9.16602 13.1059 9.14624 12.9167 9.10871" stroke="#6B6B6B" stroke-width="1.25" stroke-linecap="round"/>
<path d="M3.73443 13.4253C2.75195 13.9518 0.175948 15.0269 1.7449 16.3722C2.51133 17.0294 3.36492 17.4993 4.4381 17.4993H10.5619C11.6351 17.4993 12.4887 17.0294 13.2551 16.3722C14.8241 15.0269 12.2481 13.9518 11.2656 13.4253C8.96167 12.1907 6.03832 12.1907 3.73443 13.4253Z" stroke="#6B6B6B" stroke-width="1.25"/>
<path d="M10.8333 6.24935C10.8333 8.0903 9.34095 9.58268 7.5 9.58268C5.65905 9.58268 4.16667 8.0903 4.16667 6.24935C4.16667 4.4084 5.65905 2.91602 7.5 2.91602C9.34095 2.91602 10.8333 4.4084 10.8333 6.24935Z" stroke="#6B6B6B" stroke-width="1.25"/>
</svg>
