<svg width="20" height="20" viewBox="0 0 20 20" fill="none" xmlns="http://www.w3.org/2000/svg">
<path fill-rule="evenodd" clip-rule="evenodd" d="M18.9584 5.83398C18.9584 6.17916 18.6786 6.45898 18.3334 6.45898L1.66671 6.45898C1.32153 6.45898 1.04171 6.17916 1.04171 5.83398C1.04171 5.48881 1.32153 5.20898 1.66671 5.20898L18.3334 5.20898C18.6786 5.20898 18.9584 5.48881 18.9584 5.83398Z" fill="#6B6B6B"/>
<path fill-rule="evenodd" clip-rule="evenodd" d="M16.4584 10C16.4584 10.3452 16.1786 10.625 15.8334 10.625L4.16671 10.625C3.82153 10.625 3.54171 10.3452 3.54171 10C3.54171 9.65482 3.82153 9.375 4.16671 9.375L15.8334 9.375C16.1786 9.375 16.4584 9.65482 16.4584 10Z" fill="#6B6B6B"/>
<path fill-rule="evenodd" clip-rule="evenodd" d="M13.9584 14.166C13.9584 14.5112 13.6786 14.791 13.3334 14.791L6.66671 14.791C6.32153 14.791 6.04171 14.5112 6.04171 14.166C6.04171 13.8208 6.32153 13.541 6.66671 13.541H13.3334C13.6786 13.541 13.9584 13.8208 13.9584 14.166Z" fill="#6B6B6B"/>
</svg>
