<svg width="20" height="20" viewBox="0 0 20 20" fill="none" xmlns="http://www.w3.org/2000/svg">
<path fill-rule="evenodd" clip-rule="evenodd" d="M18.958 5.83337C18.958 6.17855 18.6782 6.45837 18.333 6.45837L1.66634 6.45837C1.32116 6.45837 1.04134 6.17855 1.04134 5.83337C1.04134 5.4882 1.32116 5.20837 1.66634 5.20837L18.333 5.20837C18.6782 5.20837 18.958 5.4882 18.958 5.83337Z" fill="#6B6B6B"/>
<path fill-rule="evenodd" clip-rule="evenodd" d="M16.458 10C16.458 10.3452 16.1782 10.625 15.833 10.625L4.16634 10.625C3.82116 10.625 3.54134 10.3452 3.54134 10C3.54134 9.65482 3.82116 9.375 4.16634 9.375L15.833 9.375C16.1782 9.375 16.458 9.65482 16.458 10Z" fill="#6B6B6B"/>
<path fill-rule="evenodd" clip-rule="evenodd" d="M13.958 14.1666C13.958 14.5118 13.6782 14.7916 13.333 14.7916L6.66634 14.7916C6.32116 14.7916 6.04134 14.5118 6.04134 14.1666C6.04134 13.8214 6.32116 13.5416 6.66634 13.5416H13.333C13.6782 13.5416 13.958 13.8214 13.958 14.1666Z" fill="#6B6B6B"/>
</svg>
