<svg width="20" height="20" viewBox="0 0 20 20" fill="none" xmlns="http://www.w3.org/2000/svg">
<path d="M16.6667 9.16675V8.33342C16.6667 5.19072 16.6667 3.61937 15.6329 2.64306C14.5992 1.66675 12.9354 1.66675 9.60785 1.66675L8.7255 1.66675C5.39794 1.66675 3.73415 1.66675 2.70041 2.64306C1.66667 3.61937 1.66667 5.19072 1.66667 8.33341L1.66667 11.6667C1.66667 14.8094 1.66667 16.3808 2.70041 17.3571C3.73415 18.3334 5.39793 18.3334 8.7255 18.3334H9.16667" stroke="#6B6B6B" stroke-width="1.25" stroke-linecap="round"/>
<path d="M5.83334 5.8335H12.5" stroke="#6B6B6B" stroke-width="1.25" stroke-linecap="round"/>
<path d="M5.83334 10H12.5" stroke="#6B6B6B" stroke-width="1.25" stroke-linecap="round"/>
<path d="M12.7898 18.2132L12.6591 17.602H12.6591L12.7898 18.2132ZM11.7869 17.2103L12.3981 17.341L11.7869 17.2103ZM12.5172 15.0932L12.0753 14.6512L12.5172 15.0932ZM14.9069 17.4829L14.465 17.0409L14.9069 17.4829ZM18.1635 12.8978L18.7048 12.5853L18.1635 12.8978ZM17.6634 14.7263L18.1054 15.1683L17.6634 14.7263ZM18.1635 14.1651L18.7048 14.4776L18.1635 14.1651ZM17.1023 11.8365L17.4148 11.2953V11.2953L17.1023 11.8365ZM15.2738 12.3366L15.7157 12.7786L15.2738 12.3366ZM15.8349 11.8365L15.5224 11.2953V11.2953L15.8349 11.8365ZM17.6634 14.7263L17.2215 14.2844L14.465 17.0409L14.9069 17.4829L15.3489 17.9248L18.1054 15.1683L17.6634 14.7263ZM12.5172 15.0932L12.9592 15.5351L15.7157 12.7786L15.2738 12.3366L14.8318 11.8947L12.0753 14.6512L12.5172 15.0932ZM12.7898 18.2132L12.6591 17.602C12.5129 17.6333 12.3961 17.6582 12.2957 17.6769C12.1944 17.6957 12.128 17.7046 12.083 17.7074C12.0367 17.7104 12.0399 17.7049 12.0688 17.7123C12.108 17.7225 12.1614 17.7477 12.2069 17.7932L11.7649 18.2352L11.323 18.6771C11.5928 18.9469 11.9298 18.9697 12.1623 18.9549C12.3836 18.9409 12.6533 18.8815 12.9205 18.8244L12.7898 18.2132ZM11.7869 17.2103L11.1757 17.0796C11.1186 17.3468 11.0592 17.6165 11.0452 17.8378C11.0304 18.0702 11.0532 18.4073 11.323 18.6771L11.7649 18.2352L12.2069 17.7932C12.2523 17.8387 12.2776 17.8921 12.2877 17.9313C12.2952 17.9601 12.2897 17.9633 12.2926 17.9171C12.2955 17.8721 12.3044 17.8057 12.3232 17.7044C12.3419 17.604 12.3668 17.4872 12.3981 17.341L11.7869 17.2103ZM17.6634 12.3366L17.2215 12.7786C17.5277 13.0848 17.5904 13.1551 17.6223 13.2103L18.1635 12.8978L18.7048 12.5853C18.5699 12.3516 18.3547 12.144 18.1054 11.8947L17.6634 12.3366ZM17.6634 14.7263L18.1054 15.1683C18.3547 14.9189 18.5699 14.7114 18.7048 14.4776L18.1635 14.1651L17.6223 13.8526C17.5904 13.9079 17.5277 13.9781 17.2215 14.2844L17.6634 14.7263ZM18.1635 12.8978L17.6223 13.2103C17.737 13.4091 17.737 13.6539 17.6223 13.8526L18.1635 14.1651L18.7048 14.4776C19.0428 13.8922 19.0428 13.1708 18.7048 12.5853L18.1635 12.8978ZM17.6634 12.3366L18.1054 11.8947C17.856 11.6454 17.6485 11.4302 17.4148 11.2953L17.1023 11.8365L16.7898 12.3778C16.845 12.4097 16.9153 12.4723 17.2215 12.7786L17.6634 12.3366ZM15.2738 12.3366L15.7157 12.7786C16.0219 12.4723 16.0922 12.4097 16.1474 12.3778L15.8349 11.8365L15.5224 11.2953C15.2887 11.4302 15.0812 11.6454 14.8318 11.8947L15.2738 12.3366ZM17.1023 11.8365L17.4148 11.2953C16.8293 10.9572 16.1079 10.9572 15.5224 11.2953L15.8349 11.8365L16.1474 12.3778C16.3462 12.2631 16.591 12.2631 16.7898 12.3778L17.1023 11.8365ZM14.9069 17.4829L14.465 17.0409C14.302 17.2039 14.0794 17.3092 13.7629 17.39C13.6044 17.4305 13.4354 17.4617 13.2469 17.4943C13.0659 17.5256 12.8586 17.5593 12.6591 17.602L12.7898 18.2132L12.9205 18.8244C13.0886 18.7884 13.2609 18.7604 13.4597 18.7261C13.6511 18.693 13.8621 18.6548 14.0722 18.6011C14.4928 18.4938 14.9611 18.3126 15.3489 17.9248L14.9069 17.4829ZM11.7869 17.2103L12.3981 17.341C12.4407 17.1415 12.4745 16.9342 12.5058 16.7532C12.5383 16.5647 12.5696 16.3956 12.6101 16.2371C12.6909 15.9207 12.7962 15.6981 12.9592 15.5351L12.5172 15.0932L12.0753 14.6512C11.6875 15.039 11.5063 15.5073 11.3989 15.9279C11.3453 16.138 11.3071 16.3489 11.274 16.5404C11.2397 16.7391 11.2117 16.9115 11.1757 17.0796L11.7869 17.2103Z" fill="#6B6B6B"/>
</svg>
