<svg width="20" height="20" viewBox="0 0 20 20" fill="none" xmlns="http://www.w3.org/2000/svg">
<path d="M16.6665 9.16675V8.33342C16.6665 5.19072 16.6665 3.61937 15.6328 2.64306C14.599 1.66675 12.9352 1.66675 9.60768 1.66675L8.72533 1.66675C5.39777 1.66675 3.73399 1.66675 2.70025 2.64306C1.6665 3.61937 1.6665 5.19072 1.6665 8.33341L1.6665 11.6667C1.6665 14.8094 1.6665 16.3808 2.70024 17.3571C3.73399 18.3334 5.39777 18.3334 8.72533 18.3334H9.1665" stroke="#6B6B6B" stroke-width="1.25" stroke-linecap="round"/>
<path d="M5.83301 5.8335H12.4997" stroke="#6B6B6B" stroke-width="1.25" stroke-linecap="round"/>
<path d="M5.83301 10H12.4997" stroke="#6B6B6B" stroke-width="1.25" stroke-linecap="round"/>
<path d="M12.7896 18.2132L12.6589 17.602H12.6589L12.7896 18.2132ZM11.7867 17.2103L12.3979 17.341L11.7867 17.2103ZM12.5171 15.0932L12.0751 14.6512L12.5171 15.0932ZM14.9067 17.4829L14.4648 17.0409L14.9067 17.4829ZM18.1634 12.8978L18.7046 12.5853L18.1634 12.8978ZM17.6633 14.7263L18.1052 15.1683L17.6633 14.7263ZM18.1634 14.1651L18.7046 14.4776L18.1634 14.1651ZM17.1021 11.8365L17.4146 11.2953V11.2953L17.1021 11.8365ZM15.2736 12.3366L15.7155 12.7786L15.2736 12.3366ZM15.8348 11.8365L15.5223 11.2953V11.2953L15.8348 11.8365ZM17.6633 14.7263L17.2213 14.2844L14.4648 17.0409L14.9067 17.4829L15.3487 17.9248L18.1052 15.1683L17.6633 14.7263ZM12.5171 15.0932L12.959 15.5351L15.7155 12.7786L15.2736 12.3366L14.8317 11.8947L12.0751 14.6512L12.5171 15.0932ZM12.7896 18.2132L12.6589 17.602C12.5127 17.6333 12.3959 17.6582 12.2955 17.6769C12.1942 17.6957 12.1278 17.7046 12.0828 17.7074C12.0366 17.7104 12.0398 17.7049 12.0686 17.7123C12.1078 17.7225 12.1612 17.7477 12.2067 17.7932L11.7647 18.2352L11.3228 18.6771C11.5926 18.9469 11.9297 18.9697 12.1621 18.9549C12.3834 18.9409 12.6531 18.8815 12.9203 18.8244L12.7896 18.2132ZM11.7867 17.2103L11.1756 17.0796C11.1184 17.3468 11.0591 17.6165 11.045 17.8378C11.0302 18.0702 11.053 18.4073 11.3228 18.6771L11.7647 18.2352L12.2067 17.7932C12.2522 17.8387 12.2775 17.8921 12.2876 17.9313C12.295 17.9601 12.2895 17.9633 12.2925 17.9171C12.2953 17.8721 12.3042 17.8057 12.3231 17.7044C12.3417 17.604 12.3667 17.4872 12.3979 17.341L11.7867 17.2103ZM17.6633 12.3366L17.2213 12.7786C17.5276 13.0848 17.5902 13.1551 17.6221 13.2103L18.1634 12.8978L18.7046 12.5853C18.5697 12.3516 18.3546 12.144 18.1052 11.8947L17.6633 12.3366ZM17.6633 14.7263L18.1052 15.1683C18.3546 14.9189 18.5697 14.7114 18.7046 14.4776L18.1634 14.1651L17.6221 13.8526C17.5902 13.9079 17.5276 13.9781 17.2213 14.2844L17.6633 14.7263ZM18.1634 12.8978L17.6221 13.2103C17.7369 13.4091 17.7369 13.6539 17.6221 13.8526L18.1634 14.1651L18.7046 14.4776C19.0427 13.8922 19.0427 13.1708 18.7046 12.5853L18.1634 12.8978ZM17.6633 12.3366L18.1052 11.8947C17.8559 11.6454 17.6483 11.4302 17.4146 11.2953L17.1021 11.8365L16.7896 12.3778C16.8449 12.4097 16.9151 12.4723 17.2213 12.7786L17.6633 12.3366ZM15.2736 12.3366L15.7155 12.7786C16.0218 12.4723 16.092 12.4097 16.1473 12.3778L15.8348 11.8365L15.5223 11.2953C15.2886 11.4302 15.081 11.6454 14.8317 11.8947L15.2736 12.3366ZM17.1021 11.8365L17.4146 11.2953C16.8291 10.9572 16.1078 10.9572 15.5223 11.2953L15.8348 11.8365L16.1473 12.3778C16.346 12.2631 16.5909 12.2631 16.7896 12.3778L17.1021 11.8365ZM14.9067 17.4829L14.4648 17.0409C14.3019 17.2039 14.0792 17.3092 13.7628 17.39C13.6043 17.4305 13.4352 17.4617 13.2468 17.4943C13.0657 17.5256 12.8584 17.5593 12.6589 17.602L12.7896 18.2132L12.9203 18.8244C13.0885 18.7884 13.2608 18.7604 13.4596 18.7261C13.651 18.693 13.862 18.6548 14.072 18.6011C14.4926 18.4938 14.9609 18.3126 15.3487 17.9248L14.9067 17.4829ZM11.7867 17.2103L12.3979 17.341C12.4406 17.1415 12.4743 16.9342 12.5056 16.7532C12.5382 16.5647 12.5695 16.3956 12.6099 16.2371C12.6907 15.9207 12.7961 15.6981 12.959 15.5351L12.5171 15.0932L12.0751 14.6512C11.6874 15.039 11.5062 15.5073 11.3988 15.9279C11.3451 16.138 11.3069 16.3489 11.2739 16.5404C11.2395 16.7391 11.2115 16.9115 11.1756 17.0796L11.7867 17.2103Z" fill="#6B6B6B"/>
</svg>
