<svg width="20" height="20" viewBox="0 0 20 20" fill="none" xmlns="http://www.w3.org/2000/svg">
<path d="M10.4412 1.66675C13.7687 1.66675 15.4325 1.66675 16.4663 2.64306C17.5 3.61937 17.5 5.19072 17.5 8.33342V11.6667C17.5 14.8094 17.5 16.3808 16.4663 17.3571C15.4325 18.3334 13.7687 18.3334 10.4412 18.3334H9.55882C6.23126 18.3334 4.56748 18.3334 3.53374 17.3571C2.5 16.3808 2.5 14.8094 2.5 11.6667L2.5 8.33341C2.5 5.19072 2.5 3.61937 3.53374 2.64306C4.56748 1.66675 6.23126 1.66675 9.55882 1.66675L10.4412 1.66675Z" stroke="#2A4467" stroke-width="1.25" stroke-linecap="round"/>
<path d="M6.6665 5.8335H13.3332" stroke="#2A4467" stroke-width="1.25" stroke-linecap="round"/>
<path d="M6.6665 10H13.3332" stroke="#2A4467" stroke-width="1.25" stroke-linecap="round"/>
<path d="M6.6665 14.1667H9.99984" stroke="#2A4467" stroke-width="1.25" stroke-linecap="round"/>
</svg>
