<svg width="56" height="56" viewBox="0 0 56 56" fill="none" xmlns="http://www.w3.org/2000/svg">
<path d="M46.6667 46.6667C46.4975 46.7936 46.3247 46.916 46.1484 47.0338C43.2058 49 39.1094 49 30.9167 49H28.0001C17.0006 49 11.5009 49 8.08384 45.5829C4.66675 42.1658 4.66675 36.6661 4.66675 25.6666V18.5366C4.66675 14.2982 4.66675 12.1789 5.55415 10.5888C6.09937 9.6118 6.86947 8.78207 7.79754 8.1665" stroke="#2A4467" stroke-opacity="0.5" stroke-width="3.5" stroke-linecap="round"/>
<path d="M25.6667 16.3334H39.0834C43.999 16.3334 46.4568 16.3334 48.2224 17.5132C48.9867 18.0239 49.643 18.6801 50.1537 19.4445C51.3334 21.21 51.3334 23.6678 51.3334 28.5834C51.3334 33.5782 51.3334 37.0504 50.8878 39.6668M28 16.3334L26.522 13.3774C25.2975 10.9285 24.1786 8.46339 21.465 7.4458C20.4826 7.07742 19.3847 7.01353 17.5 7.00244H16.3334" stroke="#2A4467" stroke-opacity="0.5" stroke-width="3.5" stroke-linecap="round"/>
<path d="M4.66669 4.66675L51.3334 51.3334" stroke="#2A4467" stroke-opacity="0.5" stroke-width="3.5" stroke-linecap="round"/>
</svg>
