<svg width="20" height="20" viewBox="0 0 20 20" fill="none" xmlns="http://www.w3.org/2000/svg">
<path fill-rule="evenodd" clip-rule="evenodd" d="M11.875 5.41528C11.875 3.68939 13.2741 2.29028 15 2.29028C16.7259 2.29028 18.125 3.68939 18.125 5.41528C18.125 7.14117 16.7259 8.54028 15 8.54028C13.2741 8.54028 11.875 7.14117 11.875 5.41528Z" fill="#6B6B6B"/>
<path fill-rule="evenodd" clip-rule="evenodd" d="M1.875 9.99854C1.875 8.27265 3.27411 6.87354 5 6.87354C6.72589 6.87354 8.125 8.27265 8.125 9.99854C8.125 11.7244 6.72589 13.1235 5 13.1235C3.27411 13.1235 1.875 11.7244 1.875 9.99854Z" fill="#6B6B6B"/>
<path fill-rule="evenodd" clip-rule="evenodd" d="M11.875 14.582C11.875 12.8561 13.2741 11.457 15 11.457C16.7259 11.457 18.125 12.8561 18.125 14.582C18.125 16.3079 16.7259 17.707 15 17.707C13.2741 17.707 11.875 16.3079 11.875 14.582Z" fill="#6B6B6B"/>
<path fill-rule="evenodd" clip-rule="evenodd" d="M13.0388 7.21497L7.62216 9.71453L6.92383 8.20121L12.3405 5.70166L13.0388 7.21497ZM7.62216 10.285L13.0388 12.7845L12.3405 14.2979L6.92383 11.7983L7.62216 10.285Z" fill="#6B6B6B"/>
</svg>
