<svg width="20" height="20" viewBox="0 0 20 20" fill="none" xmlns="http://www.w3.org/2000/svg">
<path fill-rule="evenodd" clip-rule="evenodd" d="M18.9585 5.83325C18.9585 6.17843 18.6787 6.45825 18.3335 6.45825L1.66683 6.45825C1.32165 6.45825 1.04183 6.17843 1.04183 5.83325C1.04183 5.48807 1.32165 5.20825 1.66683 5.20825L18.3335 5.20825C18.6787 5.20825 18.9585 5.48807 18.9585 5.83325Z" fill="#6B6B6B"/>
<path fill-rule="evenodd" clip-rule="evenodd" d="M16.4585 10C16.4585 10.3452 16.1787 10.625 15.8335 10.625L4.16683 10.625C3.82165 10.625 3.54183 10.3452 3.54183 10C3.54183 9.65482 3.82165 9.375 4.16683 9.375L15.8335 9.375C16.1787 9.375 16.4585 9.65482 16.4585 10Z" fill="#6B6B6B"/>
<path fill-rule="evenodd" clip-rule="evenodd" d="M13.9585 14.1667C13.9585 14.5119 13.6787 14.7917 13.3335 14.7917L6.66683 14.7917C6.32165 14.7917 6.04183 14.5119 6.04183 14.1667C6.04183 13.8216 6.32165 13.5417 6.66683 13.5417H13.3335C13.6787 13.5417 13.9585 13.8216 13.9585 14.1667Z" fill="#6B6B6B"/>
</svg>
