<svg width="20" height="20" viewBox="0 0 20 20" fill="none" xmlns="http://www.w3.org/2000/svg">
<path d="M15.6006 4.40015L15.1048 12.4202C14.9781 14.4693 14.9148 15.4938 14.4012 16.2304C14.1473 16.5946 13.8203 16.902 13.4411 17.133C12.6743 17.6001 11.6478 17.6001 9.59478 17.6001C7.53908 17.6001 6.51123 17.6001 5.74383 17.1321C5.36443 16.9007 5.03738 16.5928 4.78353 16.228C4.27009 15.4902 4.20815 14.4642 4.08427 12.4123L3.60059 4.40015" stroke="#E53935" stroke-width="1.2" stroke-linecap="round"/>
<path d="M7.2002 9.38794H12.0002" stroke="#E53935" stroke-width="1.2" stroke-linecap="round"/>
<path d="M8.40039 12.5234H10.8004" stroke="#E53935" stroke-width="1.2" stroke-linecap="round"/>
<path d="M2.40039 4.4001H16.8004M12.8448 4.4001L12.2987 3.27348C11.9359 2.5251 11.7545 2.15091 11.4416 1.91754C11.3722 1.86578 11.2987 1.81973 11.2219 1.77986C10.8754 1.6001 10.4595 1.6001 9.62786 1.6001C8.7753 1.6001 8.34902 1.6001 7.99679 1.78739C7.91872 1.8289 7.84423 1.87681 7.77408 1.93063C7.45755 2.17346 7.28074 2.56134 6.92712 3.3371L6.44258 4.4001" stroke="#E53935" stroke-width="1.2" stroke-linecap="round"/>
</svg>
