<svg width="20" height="20" viewBox="0 0 20 20" fill="none" xmlns="http://www.w3.org/2000/svg">
<path d="M16.667 9.16675V8.33342C16.667 5.19072 16.667 3.61937 15.6333 2.64306C14.5995 1.66675 12.9357 1.66675 9.60817 1.66675L8.72582 1.66675C5.39826 1.66675 3.73447 1.66675 2.70073 2.64306C1.66699 3.61937 1.66699 5.19072 1.66699 8.33341L1.66699 11.6667C1.66699 14.8094 1.66699 16.3808 2.70073 17.3571C3.73447 18.3334 5.39825 18.3334 8.72582 18.3334H9.16699" stroke="#6B6B6B" stroke-width="1.25" stroke-linecap="round"/>
<path d="M5.83398 5.8335H12.5007" stroke="#6B6B6B" stroke-width="1.25" stroke-linecap="round"/>
<path d="M5.83398 10H12.5007" stroke="#6B6B6B" stroke-width="1.25" stroke-linecap="round"/>
<path d="M12.7901 18.2132L12.6594 17.602H12.6594L12.7901 18.2132ZM11.7872 17.2103L12.3984 17.341L11.7872 17.2103ZM12.5176 15.0932L12.0756 14.6512L12.5176 15.0932ZM14.9072 17.4829L14.4653 17.0409L14.9072 17.4829ZM18.1639 12.8978L18.7051 12.5853L18.1639 12.8978ZM17.6638 14.7263L18.1057 15.1683L17.6638 14.7263ZM18.1639 14.1651L18.7051 14.4776L18.1639 14.1651ZM17.1026 11.8365L17.4151 11.2953V11.2953L17.1026 11.8365ZM15.2741 12.3366L15.716 12.7786L15.2741 12.3366ZM15.8353 11.8365L15.5228 11.2953V11.2953L15.8353 11.8365ZM17.6638 14.7263L17.2218 14.2844L14.4653 17.0409L14.9072 17.4829L15.3492 17.9248L18.1057 15.1683L17.6638 14.7263ZM12.5176 15.0932L12.9595 15.5351L15.716 12.7786L15.2741 12.3366L14.8321 11.8947L12.0756 14.6512L12.5176 15.0932ZM12.7901 18.2132L12.6594 17.602C12.5132 17.6333 12.3964 17.6582 12.296 17.6769C12.1947 17.6957 12.1283 17.7046 12.0833 17.7074C12.0371 17.7104 12.0403 17.7049 12.0691 17.7123C12.1083 17.7225 12.1617 17.7477 12.2072 17.7932L11.7652 18.2352L11.3233 18.6771C11.5931 18.9469 11.9302 18.9697 12.1626 18.9549C12.3839 18.9409 12.6536 18.8815 12.9208 18.8244L12.7901 18.2132ZM11.7872 17.2103L11.176 17.0796C11.1189 17.3468 11.0596 17.6165 11.0455 17.8378C11.0307 18.0702 11.0535 18.4073 11.3233 18.6771L11.7652 18.2352L12.2072 17.7932C12.2527 17.8387 12.2779 17.8921 12.2881 17.9313C12.2955 17.9601 12.29 17.9633 12.293 17.9171C12.2958 17.8721 12.3047 17.8057 12.3236 17.7044C12.3422 17.604 12.3671 17.4872 12.3984 17.341L11.7872 17.2103ZM17.6638 12.3366L17.2218 12.7786C17.5281 13.0848 17.5907 13.1551 17.6226 13.2103L18.1639 12.8978L18.7051 12.5853C18.5702 12.3516 18.355 12.144 18.1057 11.8947L17.6638 12.3366ZM17.6638 14.7263L18.1057 15.1683C18.355 14.9189 18.5702 14.7114 18.7051 14.4776L18.1639 14.1651L17.6226 13.8526C17.5907 13.9079 17.5281 13.9781 17.2218 14.2844L17.6638 14.7263ZM18.1639 12.8978L17.6226 13.2103C17.7373 13.4091 17.7373 13.6539 17.6226 13.8526L18.1639 14.1651L18.7051 14.4776C19.0432 13.8922 19.0432 13.1708 18.7051 12.5853L18.1639 12.8978ZM17.6638 12.3366L18.1057 11.8947C17.8564 11.6454 17.6488 11.4302 17.4151 11.2953L17.1026 11.8365L16.7901 12.3778C16.8454 12.4097 16.9156 12.4723 17.2218 12.7786L17.6638 12.3366ZM15.2741 12.3366L15.716 12.7786C16.0223 12.4723 16.0925 12.4097 16.1478 12.3778L15.8353 11.8365L15.5228 11.2953C15.289 11.4302 15.0815 11.6454 14.8321 11.8947L15.2741 12.3366ZM17.1026 11.8365L17.4151 11.2953C16.8296 10.9572 16.1082 10.9572 15.5228 11.2953L15.8353 11.8365L16.1478 12.3778C16.3465 12.2631 16.5913 12.2631 16.7901 12.3778L17.1026 11.8365ZM14.9072 17.4829L14.4653 17.0409C14.3023 17.2039 14.0797 17.3092 13.7633 17.39C13.6048 17.4305 13.4357 17.4617 13.2472 17.4943C13.0662 17.5256 12.8589 17.5593 12.6594 17.602L12.7901 18.2132L12.9208 18.8244C13.0889 18.7884 13.2613 18.7604 13.4601 18.7261C13.6515 18.693 13.8625 18.6548 14.0725 18.6011C14.4931 18.4938 14.9614 18.3126 15.3492 17.9248L14.9072 17.4829ZM11.7872 17.2103L12.3984 17.341C12.4411 17.1415 12.4748 16.9342 12.5061 16.7532C12.5387 16.5647 12.5699 16.3956 12.6104 16.2371C12.6912 15.9207 12.7966 15.6981 12.9595 15.5351L12.5176 15.0932L12.0756 14.6512C11.6878 15.039 11.5067 15.5073 11.3993 15.9279C11.3456 16.138 11.3074 16.3489 11.2743 16.5404C11.24 16.7391 11.212 16.9115 11.176 17.0796L11.7872 17.2103Z" fill="#6B6B6B"/>
</svg>
