<svg width="20" height="20" viewBox="0 0 20 20" fill="none" xmlns="http://www.w3.org/2000/svg">
<g clip-path="url(#clip0_4361_34808)">
<path d="M12.5 14.1667C11.8337 14.6854 10.9585 15.0001 10 15.0001C9.04146 15.0001 8.16627 14.6854 7.5 14.1667" stroke="#6B6B6B" stroke-width="1.5" stroke-linecap="round"/>
<path d="M1.95982 11.0113C1.66563 9.09695 1.51854 8.13978 1.88046 7.29123C2.24238 6.44268 3.04535 5.86211 4.65127 4.70097L5.85115 3.83341C7.8489 2.38897 8.84778 1.66675 10.0003 1.66675C11.1529 1.66675 12.1517 2.38897 14.1495 3.83341L15.3494 4.70097C16.9553 5.86211 17.7583 6.44268 18.1202 7.29123C18.4821 8.13978 18.335 9.09695 18.0408 11.0113L17.79 12.6437C17.3729 15.3575 17.1644 16.7144 16.1912 17.5239C15.2179 18.3334 13.795 18.3334 10.9493 18.3334H9.05131C6.2056 18.3334 4.78275 18.3334 3.80949 17.5239C2.83623 16.7144 2.62772 15.3575 2.21068 12.6437L1.95982 11.0113Z" stroke="#6B6B6B" stroke-width="1.5" stroke-linejoin="round"/>
</g>
<defs>
<clipPath id="clip0_4361_34808">
<rect width="20" height="20" fill="white"/>
</clipPath>
</defs>
</svg>
