<svg width="29" height="29" viewBox="0 0 29 29" fill="none" xmlns="http://www.w3.org/2000/svg">
<path d="M15.0349 2.3999C19.8266 2.3999 22.2224 2.3999 23.711 3.80579C25.1996 5.21168 25.1996 7.47442 25.1996 11.9999V16.7999C25.1996 21.3254 25.1996 23.5881 23.711 24.994C22.2224 26.3999 19.8266 26.3999 15.0349 26.3999H13.7643C8.97263 26.3999 6.57678 26.3999 5.0882 24.994C3.59961 23.5881 3.59961 21.3254 3.59961 16.7999L3.59961 11.9999C3.59961 7.47442 3.59961 5.21168 5.0882 3.80579C6.57678 2.3999 8.97263 2.3999 13.7643 2.3999L15.0349 2.3999Z" stroke="#6B6B6B" stroke-width="1.8" stroke-linecap="round"/>
<path d="M9.59961 8.3999H19.1996" stroke="#6B6B6B" stroke-width="1.8" stroke-linecap="round"/>
<path d="M9.59961 14.3999H19.1996" stroke="#6B6B6B" stroke-width="1.8" stroke-linecap="round"/>
<path d="M9.59961 20.3999H14.3996" stroke="#6B6B6B" stroke-width="1.8" stroke-linecap="round"/>
</svg>
