<svg width="22" height="18" viewBox="0 0 22 18" fill="none" xmlns="http://www.w3.org/2000/svg">
<path fill-rule="evenodd" clip-rule="evenodd" d="M11 5.11628C8.88077 5.11628 7.16279 6.83426 7.16279 8.95349C7.16279 11.0727 8.88077 12.7907 11 12.7907C13.1192 12.7907 14.8372 11.0727 14.8372 8.95349C14.8372 6.83426 13.1192 5.11628 11 5.11628ZM8.69767 8.95349C8.69767 7.68195 9.72846 6.65116 11 6.65116C12.2715 6.65116 13.3023 7.68195 13.3023 8.95349C13.3023 10.225 12.2715 11.2558 11 11.2558C9.72846 11.2558 8.69767 10.225 8.69767 8.95349Z" fill="#697A6E"/>
<path fill-rule="evenodd" clip-rule="evenodd" d="M11 0C6.38089 0 3.2696 2.76709 1.46384 5.11307L1.43127 5.15537C1.02289 5.68575 0.646759 6.17425 0.391587 6.75185C0.118334 7.37038 0 8.04452 0 8.95349C0 9.86246 0.118334 10.5366 0.391587 11.1551C0.646761 11.7327 1.02289 12.2212 1.43128 12.7516L1.46384 12.7939C3.2696 15.1399 6.38089 17.907 11 17.907C15.6191 17.907 18.7304 15.1399 20.5362 12.7939L20.5687 12.7516C20.9771 12.2212 21.3532 11.7327 21.6084 11.1551C21.8817 10.5366 22 9.86246 22 8.95349C22 8.04452 21.8817 7.37038 21.6084 6.75185C21.3532 6.17424 20.9771 5.68574 20.5687 5.15534L20.5362 5.11307C18.7304 2.76709 15.6191 0 11 0ZM2.68013 6.04928C4.34744 3.88317 7.06083 1.53488 11 1.53488C14.9392 1.53488 17.6526 3.88317 19.3199 6.04928C19.7687 6.63232 20.0315 6.98071 20.2044 7.3721C20.366 7.73788 20.4651 8.18496 20.4651 8.95349C20.4651 9.72202 20.366 10.1691 20.2044 10.5349C20.0315 10.9263 19.7687 11.2747 19.3199 11.8577C17.6526 14.0238 14.9392 16.3721 11 16.3721C7.06083 16.3721 4.34744 14.0238 2.68013 11.8577C2.23135 11.2747 1.96847 10.9263 1.79557 10.5349C1.63397 10.1691 1.53488 9.72202 1.53488 8.95349C1.53488 8.18496 1.63397 7.73788 1.79557 7.3721C1.96847 6.98071 2.23135 6.63232 2.68013 6.04928Z" fill="#697A6E"/>
</svg>
