<svg width="23" height="27" viewBox="0 0 23 27" fill="none" xmlns="http://www.w3.org/2000/svg">
<path d="M16.3937 19.4522L7.82985 19.4522" stroke="#43A047" stroke-width="2.16" stroke-linecap="round" stroke-linejoin="round"/>
<path d="M16.3937 14.5588L12.7235 14.5588" stroke="#43A047" stroke-width="2.16" stroke-linecap="round" stroke-linejoin="round"/>
<path d="M21.8989 15.782C21.8989 20.3957 21.8989 22.7026 20.376 24.1359C18.8531 25.5692 16.402 25.5692 11.4999 25.5692H10.5546C6.56483 25.5692 4.56995 25.5692 3.18458 24.5931C2.78764 24.3134 2.43526 23.9818 2.13812 23.6082C1.10104 22.3043 1.10104 20.4268 1.10104 16.6717V13.5576C1.10104 9.93244 1.10104 8.11987 1.67474 6.6722C2.59703 4.34489 4.54753 2.50913 7.0203 1.64109C8.55844 1.10114 10.4843 1.10114 14.336 1.10114C16.537 1.10114 17.6375 1.10114 18.5164 1.40968C19.9294 1.90571 21.044 2.95471 21.571 4.2846C21.8989 5.11184 21.8989 6.1476 21.8989 8.21911V15.782Z" stroke="#43A047" stroke-width="2.16" stroke-linejoin="round"/>
<path d="M1.10164 13.3356C1.10164 11.0834 2.92742 9.25765 5.17964 9.25765C5.99416 9.25765 6.95443 9.40037 7.74638 9.18817C8.45002 8.99963 8.99963 8.45002 9.18817 7.74638C9.40037 6.95443 9.25765 5.99416 9.25765 5.17964C9.25765 2.92742 11.0834 1.10164 13.3356 1.10164" stroke="#43A047" stroke-width="2.16" stroke-linecap="round" stroke-linejoin="round"/>
</svg>
