<svg width="171" height="34" viewBox="0 0 171 34" fill="none" xmlns="http://www.w3.org/2000/svg">
<g clip-path="url(#clip0_1601_9834)">
<path d="M12.0744 0.174991C10.6445 0.460972 9.11929 1.81144 8.73798 3.14602C8.65854 3.46378 8.5791 4.17873 8.5791 4.71891C8.5791 6.60957 9.92957 8.38901 11.7249 8.89742C13.9015 9.50116 16.2212 8.35723 17.095 6.24415C17.4763 5.35443 17.4445 3.74976 17.0156 2.76471C16.2053 0.874056 14.1081 -0.222206 12.0744 0.174991Z" fill="#C19640"/>
<path d="M3.4154 9.24688C0.571476 12.1702 0.0948406 12.9805 0.110728 14.9188C0.126616 17.2067 1.15933 18.9226 3.14531 19.8917L4.20979 20.416L9.80232 20.4637C12.8846 20.4955 15.4107 20.559 15.3948 20.6226C15.379 20.6861 13.7743 22.2749 11.8201 24.1497C9.86587 26.0244 8.27708 27.645 8.2612 27.7244C8.2612 27.8198 9.65933 29.2815 11.3752 30.9815L14.4733 34.0796L20.749 27.7244C24.1967 24.2291 27.3107 20.9562 27.6444 20.4478C28.5182 19.145 28.8201 18.1441 28.7247 16.8572C28.6771 16.2852 28.5023 15.459 28.3117 15.0459C27.8509 14.0132 26.5322 12.6628 25.5313 12.2179C24.7051 11.8366 24.6575 11.8366 17.2378 11.7572C9.97708 11.6777 9.75465 11.6618 9.02381 11.3282C7.27615 10.5179 6.35465 9.37398 6.35465 8.00763C6.35465 7.29267 6.164 6.83193 5.86213 6.83193C5.79858 6.83193 4.70232 7.9123 3.4154 9.24688Z" fill="#C19640"/>
<path d="M85.4764 8.92937C83.967 9.96208 83.6969 11.7733 84.8409 13.092C85.1109 13.378 85.524 13.7116 85.7941 13.8228C86.4614 14.0929 87.9231 13.9499 88.4633 13.5527C89.0829 13.092 89.6072 12.1069 89.6072 11.3602C89.6072 10.5023 89.0194 9.39011 88.3521 8.94525C87.6053 8.43684 86.2072 8.43684 85.4764 8.92937Z" fill="white"/>
<path d="M39.5766 8.9767C35.0167 9.80287 32.5065 12.472 33.2055 15.7767C33.4438 16.9365 34.1111 17.8262 35.3027 18.6047C36.6055 19.4468 37.7653 19.7804 41.6261 20.4318C46.5195 21.258 48.0924 21.83 48.4579 22.9421C48.6962 23.673 48.3466 24.4991 47.6317 24.944C45.7569 26.1038 41.3719 26.1832 39.2588 25.1188C38.5438 24.7533 37.4952 23.5935 37.4952 23.1646C37.4952 22.8945 37.3046 22.8786 34.9532 22.8786C33.428 22.8786 32.4111 22.9421 32.4111 23.0374C32.4111 23.3393 33.1102 25.0393 33.4597 25.5795C34.3653 26.9935 36.2878 28.3599 38.2896 28.9795C41.4831 29.9963 46.7579 29.8692 49.4906 28.7094C51.2859 27.9627 52.7158 26.644 53.2401 25.2617C53.5102 24.5627 53.5579 24.1337 53.5102 23.1169C53.4308 21.5281 52.9859 20.5748 51.8896 19.6216C50.4438 18.3346 48.8709 17.7945 44.9466 17.1589C39.3382 16.2692 38.2737 15.9038 38.1625 14.7917C38.0195 13.3617 40.2756 12.4403 43.4691 12.5991C45.6298 12.6945 46.5513 13.0122 47.441 13.9337L48.1083 14.6169H50.6027H53.0971L52.9859 14.0926C52.5728 12.2337 50.6027 10.2954 48.3149 9.51689C46.17 8.77016 42.0868 8.53184 39.5766 8.9767Z" fill="white"/>
<path d="M95.9786 9.29445C93.8814 9.75519 93.2459 10.6767 93.1347 13.3776L93.0552 15.0935H91.8954H90.7197V17.0001V18.9066H91.9113H93.1029V24.1496V29.3926H95.4066H97.7104V24.1496V18.9066H100.411H103.112V17.0001V15.0935H100.395H97.6627L97.758 14.2038C97.8057 13.7113 97.9328 13.2187 98.0281 13.1234C98.1394 13.0122 99.1403 12.9328 100.65 12.901L103.112 12.8533V10.9468V9.05613L100.062 9.07202C98.0917 9.07202 96.63 9.16734 95.9786 9.29445Z" fill="white"/>
<path d="M117.729 19.2085V29.3926H120.112H122.495V25.9926V22.5926L127.15 22.5131C132.107 22.4496 132.711 22.3701 134.538 21.5281C135.65 21.0197 137.112 19.6057 137.684 18.4776C138.113 17.6038 138.144 17.4449 138.144 15.6496C138.144 13.886 138.113 13.6795 137.7 12.8533C136.905 11.2328 135.38 10.1047 133.06 9.43744C132.234 9.18323 131.154 9.15146 124.926 9.0879L117.729 9.04024V19.2085ZM130.677 13.044C132.758 13.4253 133.505 14.2038 133.426 15.8402C133.362 16.7141 133.299 16.9047 132.838 17.3814C132.536 17.6832 131.932 18.0963 131.487 18.287C130.725 18.6365 130.407 18.6524 126.594 18.7159L122.495 18.7795V15.8244V12.8692H126.117C128.119 12.8692 130.169 12.9487 130.677 13.044Z" fill="white"/>
<path d="M106.29 13.0281V15.0935H105.019H103.748V17V18.9066H105.003H106.258L106.322 22.8309C106.37 26.6916 106.385 26.7869 106.767 27.486C107.196 28.2486 107.911 28.8047 108.816 29.0907C109.134 29.186 110.945 29.2972 112.852 29.3449L116.299 29.4243V27.5178V25.5953L113.948 25.5477C112.232 25.5159 111.501 25.4365 111.327 25.2776C111.088 25.0869 111.056 24.658 111.056 21.9888V18.9066H113.599H116.141V17V15.0935H113.519H110.898V13.0281V10.9626H108.594H106.29V13.0281Z" fill="white"/>
<path d="M159.038 14.8712C158.815 14.903 158.211 15.0142 157.687 15.1095C155.272 15.5385 152.857 17.3179 151.84 19.3834C151.364 20.3684 151.332 20.5114 151.332 22.2432C151.332 23.9908 151.364 24.1338 151.84 25.1189C153.366 28.2011 156.956 29.9011 161.421 29.6469C162.342 29.5993 163.534 29.4563 164.074 29.3133C166.568 28.7095 168.618 27.1684 169.571 25.1507C170.048 24.1338 170.08 23.975 170.08 22.2432C170.08 20.4955 170.048 20.3684 169.555 19.3516C168.554 17.3179 166.251 15.6179 163.804 15.0936C162.882 14.903 159.705 14.7441 159.038 14.8712ZM162.215 18.6049C164.44 19.0815 165.79 21.131 165.234 23.1964C164.932 24.3245 163.677 25.4525 162.326 25.8179C160.245 26.374 158.18 25.8815 156.988 24.531C155.415 22.7516 155.94 20.0665 158.037 19.0021C159.133 18.446 160.769 18.2871 162.215 18.6049Z" fill="white"/>
<path d="M52.8111 15.3636C52.8747 15.5225 54.3999 18.7318 56.2111 22.5131L59.4999 29.3926H61.7242H63.9485L66.0139 24.5468L68.0634 19.7169L70.1289 24.5627L72.2102 29.3926H74.4345H76.6588L79.9476 22.5131C81.7588 18.7318 83.284 15.5225 83.3476 15.3636C83.4429 15.1094 83.2363 15.0935 80.9167 15.0935H78.3905L76.4046 19.8599C75.3242 22.4814 74.4027 24.6262 74.355 24.6262C74.3074 24.6262 73.3382 22.4973 72.1943 19.8916L70.1289 15.173H68.0952H66.0616L63.9485 19.9234C62.2167 23.8001 61.8036 24.6103 61.6765 24.372C61.5971 24.1973 60.6915 22.0524 59.6588 19.5739L57.784 15.0935H55.2578C52.9223 15.0935 52.7158 15.1094 52.8111 15.3636Z" fill="white"/>
<path d="M84.5234 22.243V29.3926H86.9066H89.2898V22.243V15.0935H86.9066H84.5234V22.243Z" fill="white"/>
<path d="M139.495 22.243V29.3926H141.942H144.389L144.452 25.6113C144.547 21.2421 144.69 20.4954 145.628 19.7169C146.406 19.0814 147.248 18.9066 149.489 18.9066H151.411V16.9842V15.0617L149.234 15.1253C146.661 15.1888 145.946 15.443 144.897 16.6346L144.261 17.3655V16.2215V15.0935H141.878H139.495V22.243Z" fill="white"/>
</g>
<defs>
<clipPath id="clip0_1601_9834">
<rect width="170.159" height="34" fill="white"/>
</clipPath>
</defs>
</svg>
